<svg width="124" height="124" viewBox="0 0 124 124" fill="none" xmlns="http://www.w3.org/2000/svg">
<circle cx="62" cy="62" r="62" fill="#EAD8FC"/>
<path d="M41.448 55.8H43.144C43.8907 55.8 44.52 55.912 45.032 56.136C45.5547 56.36 45.9493 56.6747 46.216 57.08C46.4827 57.4747 46.616 57.9387 46.616 58.472C46.616 58.92 46.5307 59.3147 46.36 59.656C46.1893 59.9867 45.9707 60.2587 45.704 60.472C45.4373 60.6747 45.1547 60.8187 44.856 60.904C45.4213 60.9893 45.9067 61.176 46.312 61.464C46.728 61.752 47.0427 62.1147 47.256 62.552C47.48 62.9787 47.592 63.4587 47.592 63.992C47.592 64.5893 47.448 65.1173 47.16 65.576C46.872 66.024 46.4453 66.376 45.88 66.632C45.3253 66.8773 44.6533 67 43.864 67H42.088C42.088 67 42.088 66.952 42.088 66.856C42.0987 66.76 42.104 66.664 42.104 66.568C42.104 66.472 42.104 66.424 42.104 66.424H43.8C44.3547 66.424 44.824 66.328 45.208 66.136C45.592 65.9333 45.8853 65.64 46.088 65.256C46.2907 64.872 46.392 64.4133 46.392 63.88C46.392 63.2827 46.2747 62.7973 46.04 62.424C45.816 62.0507 45.5227 61.768 45.16 61.576C44.7973 61.384 44.4027 61.256 43.976 61.192C43.56 61.1173 43.16 61.08 42.776 61.08V60.936C43.0213 60.936 43.2933 60.9093 43.592 60.856C43.8907 60.8027 44.1787 60.696 44.456 60.536C44.7333 60.376 44.9627 60.1413 45.144 59.832C45.3253 59.512 45.416 59.096 45.416 58.584C45.416 58.104 45.3253 57.6933 45.144 57.352C44.9733 57.0107 44.712 56.7547 44.36 56.584C44.0187 56.4027 43.592 56.312 43.08 56.312H41.608C41.608 56.3013 41.592 56.2587 41.56 56.184C41.5387 56.0987 41.512 56.0133 41.48 55.928C41.4587 55.8427 41.448 55.8 41.448 55.8ZM42.232 55.8V67H41.192V55.8H42.232ZM41.24 65.832V67H39.96L39.976 66.84C39.9973 66.84 40.0293 66.84 40.072 66.84C40.1253 66.84 40.1573 66.84 40.168 66.84C40.4453 66.84 40.6853 66.744 40.888 66.552C41.0907 66.3493 41.192 66.1093 41.192 65.832H41.24ZM41.24 56.968H41.192C41.192 56.6907 41.0907 56.456 40.888 56.264C40.6853 56.0613 40.4453 55.96 40.168 55.96C40.1573 55.96 40.1253 55.96 40.072 55.96C40.0293 55.96 39.9973 55.96 39.976 55.96L39.96 55.8H41.24V56.968ZM51.2748 57.4V67H50.2508V57.4H51.2748ZM55.5788 66.504L55.5468 67H51.2428V66.504H55.5788ZM54.8268 61.96V62.44H51.2428V61.96H54.8268ZM55.5628 57.4V57.896H51.2428V57.4H55.5628ZM56.4748 64.712L55.5948 67H53.1628L53.7068 66.504C54.2401 66.504 54.6668 66.4293 54.9868 66.28C55.3174 66.12 55.5841 65.9067 55.7868 65.64C55.9894 65.3627 56.1654 65.0533 56.3148 64.712H56.4748ZM54.8268 62.408V63.32H54.6508V63.112C54.6508 62.9307 54.5974 62.776 54.4908 62.648C54.3841 62.5093 54.2188 62.44 53.9948 62.44V62.408H54.8268ZM54.8268 61.08V61.992H53.9948V61.96C54.2188 61.96 54.3841 61.896 54.4908 61.768C54.5974 61.6293 54.6508 61.4693 54.6508 61.288V61.08H54.8268ZM55.5628 57.848V58.952H55.3868V58.712C55.3868 58.488 55.3121 58.296 55.1628 58.136C55.0241 57.976 54.8321 57.896 54.5868 57.896V57.848H55.5628ZM55.5628 57.144V57.56L53.7388 57.4C54.0694 57.4 54.4214 57.3733 54.7948 57.32C55.1681 57.256 55.4241 57.1973 55.5628 57.144ZM50.2828 65.976L50.4908 67H49.0988V66.84C49.0988 66.84 49.1361 66.84 49.2108 66.84C49.2854 66.84 49.3228 66.84 49.3228 66.84C49.5894 66.84 49.8081 66.7547 49.9788 66.584C50.1494 66.4133 50.2401 66.2107 50.2508 65.976H50.2828ZM50.2828 58.408H50.2508C50.2401 58.1627 50.1494 57.96 49.9788 57.8C49.8081 57.64 49.5894 57.56 49.3228 57.56C49.3228 57.56 49.2854 57.56 49.2108 57.56C49.1361 57.56 49.0988 57.56 49.0988 57.56V57.4H50.4908L50.2828 58.408ZM62.3291 57.176L66.7291 66.904H65.4651L62.0571 58.6L62.3291 57.176ZM59.2411 65.832C59.1238 66.152 59.1398 66.4027 59.2891 66.584C59.4385 66.7547 59.6091 66.84 59.8011 66.84H59.9291V67H56.8731V66.84C56.8731 66.84 56.8945 66.84 56.9371 66.84C56.9798 66.84 57.0011 66.84 57.0011 66.84C57.2251 66.84 57.4545 66.7653 57.6891 66.616C57.9238 66.456 58.1265 66.1947 58.2971 65.832H59.2411ZM62.3291 57.176L62.4411 58.28L58.7771 66.952H57.7691L61.5611 58.824C61.5611 58.824 61.5878 58.76 61.6411 58.632C61.7051 58.504 61.7745 58.3493 61.8491 58.168C61.9345 57.976 62.0091 57.7893 62.0731 57.608C62.1371 57.4267 62.1745 57.2827 62.1851 57.176H62.3291ZM64.2171 63.272V63.752H59.9771V63.272H64.2171ZM65.0331 65.832H66.2491C66.4091 66.1947 66.6065 66.456 66.8411 66.616C67.0758 66.7653 67.2998 66.84 67.5131 66.84C67.5131 66.84 67.5345 66.84 67.5771 66.84C67.6198 66.84 67.6411 66.84 67.6411 66.84V67H64.3611V66.84H64.4891C64.6705 66.84 64.8358 66.7547 64.9851 66.584C65.1345 66.4027 65.1505 66.152 65.0331 65.832ZM69.5939 57.4V63.448C69.5939 64.4827 69.8552 65.2987 70.3779 65.896C70.9112 66.4933 71.6365 66.792 72.5539 66.792C73.5672 66.792 74.3619 66.5093 74.9379 65.944C75.5245 65.3787 75.8179 64.6053 75.8179 63.624V57.4H76.5539V63.624C76.5539 64.7333 76.1965 65.6133 75.4819 66.264C74.7779 66.904 73.8072 67.224 72.5699 67.224C71.3432 67.224 70.3672 66.904 69.6419 66.264C68.9272 65.624 68.5699 64.7493 68.5699 63.64V57.4H69.5939ZM68.6019 57.4V58.248H68.5699C68.5592 58.056 68.4792 57.896 68.3299 57.768C68.1912 57.6293 68.0152 57.56 67.8019 57.56C67.8019 57.56 67.7592 57.56 67.6739 57.56C67.5992 57.56 67.5619 57.56 67.5619 57.56V57.4H68.6019ZM70.6019 57.4V57.56C70.6019 57.56 70.5592 57.56 70.4739 57.56C70.3992 57.56 70.3619 57.56 70.3619 57.56C70.1592 57.56 69.9779 57.6293 69.8179 57.768C69.6685 57.896 69.5939 58.056 69.5939 58.248H69.5619V57.4H70.6019ZM75.8499 57.4V58.248H75.8179C75.8179 58.056 75.7432 57.896 75.5939 57.768C75.4445 57.6293 75.2632 57.56 75.0499 57.56C75.0499 57.56 75.0072 57.56 74.9219 57.56C74.8472 57.56 74.8099 57.56 74.8099 57.56V57.4H75.8499ZM77.5619 57.4V57.56C77.5619 57.56 77.5192 57.56 77.4339 57.56C77.3592 57.56 77.3219 57.56 77.3219 57.56C77.1192 57.56 76.9432 57.6293 76.7939 57.768C76.6445 57.896 76.5645 58.056 76.5539 58.248H76.5219V57.4H77.5619ZM83.277 57.448V67H82.237V57.448H83.277ZM87.149 57.384V57.864H78.365V57.384H87.149ZM87.149 57.832V58.936H86.973V58.68C86.973 58.456 86.8983 58.2693 86.749 58.12C86.6103 57.96 86.4183 57.8747 86.173 57.864V57.832H87.149ZM87.149 57.128V57.544L85.357 57.384C85.5703 57.384 85.7943 57.3733 86.029 57.352C86.2743 57.32 86.4983 57.2827 86.701 57.24C86.9037 57.1973 87.053 57.16 87.149 57.128ZM82.269 65.976V67H81.101V66.84C81.1117 66.84 81.1437 66.84 81.197 66.84C81.261 66.84 81.293 66.84 81.293 66.84C81.549 66.84 81.7677 66.7547 81.949 66.584C82.1303 66.4133 82.2263 66.2107 82.237 65.976H82.269ZM83.229 65.976H83.277C83.2877 66.2107 83.3837 66.4133 83.565 66.584C83.7463 66.7547 83.965 66.84 84.221 66.84C84.221 66.84 84.2477 66.84 84.301 66.84C84.365 66.84 84.397 66.84 84.397 66.84V67H83.229V65.976ZM79.341 57.832V57.864C79.0957 57.8747 78.8983 57.96 78.749 58.12C78.6103 58.2693 78.541 58.456 78.541 58.68V58.936H78.365V57.832H79.341ZM78.365 57.128C78.461 57.16 78.605 57.1973 78.797 57.24C78.9997 57.2827 79.2237 57.32 79.469 57.352C79.7143 57.3733 79.9437 57.384 80.157 57.384L78.365 57.544V57.128ZM89.9153 57.416L92.8753 62.68L92.2193 63.24L88.5233 57.416H89.9153ZM93.1153 62.872V67H92.0753V62.872H93.1153ZM95.8033 57.416H96.8113L93.0033 63.208L92.4113 63.032L95.8033 57.416ZM95.1953 58.424C95.3126 58.2107 95.3179 58.0133 95.2113 57.832C95.1046 57.6507 94.9339 57.56 94.6993 57.56C94.6993 57.56 94.6673 57.56 94.6033 57.56C94.5393 57.56 94.5073 57.56 94.5073 57.56V57.4H97.8513V57.56H97.6593C97.3606 57.56 97.0779 57.6453 96.8113 57.816C96.5553 57.976 96.3526 58.1627 96.2033 58.376L95.1953 58.424ZM90.4753 58.408L89.1153 58.36C88.9446 58.1147 88.7313 57.9227 88.4753 57.784C88.2299 57.6347 87.9526 57.56 87.6433 57.56H87.4512V57.4H91.1633V57.56C91.1633 57.56 91.1313 57.56 91.0673 57.56C91.0033 57.56 90.9713 57.56 90.9713 57.56C90.7366 57.56 90.5659 57.656 90.4593 57.848C90.3633 58.0293 90.3686 58.216 90.4753 58.408ZM92.1233 65.976V67H90.9553V66.84C90.9659 66.84 90.9979 66.84 91.0513 66.84C91.1153 66.84 91.1473 66.84 91.1473 66.84C91.4033 66.84 91.6166 66.7547 91.7873 66.584C91.9686 66.4133 92.0646 66.2107 92.0753 65.976H92.1233ZM93.0673 65.976H93.1153C93.1259 66.2107 93.2166 66.4133 93.3873 66.584C93.5686 66.7547 93.7873 66.84 94.0433 66.84C94.0433 66.84 94.0753 66.84 94.1393 66.84C94.2033 66.84 94.2353 66.84 94.2353 66.84V67H93.0673V65.976Z" fill="black"/>
</svg>
