<svg width="194" height="194" viewBox="0 0 194 194" fill="none" xmlns="http://www.w3.org/2000/svg">
<g filter="url(#filter0_d_2_73)">
<circle cx="93" cy="95" r="80" fill="#AB0186"/>
</g>
<path d="M53.0437 55H58.2337C59.6937 55 60.9937 55.18 62.1337 55.54C63.2937 55.88 64.2037 56.43 64.8637 57.19C65.5237 57.93 65.8537 58.91 65.8537 60.13C65.8537 61.05 65.6737 61.83 65.3137 62.47C64.9737 63.11 64.5237 63.6 63.9637 63.94C63.4037 64.28 62.8137 64.49 62.1937 64.57C63.1937 64.65 64.0937 64.93 64.8937 65.41C65.7137 65.89 66.3537 66.53 66.8137 67.33C67.2737 68.13 67.5037 69.07 67.5037 70.15C67.5037 71.43 67.1537 72.51 66.4537 73.39C65.7537 74.25 64.7637 74.9 63.4837 75.34C62.2237 75.78 60.7537 76 59.0737 76H56.1037C56.1037 76 56.1037 75.89 56.1037 75.67C56.1237 75.43 56.1337 75.2 56.1337 74.98C56.1337 74.76 56.1337 74.65 56.1337 74.65H57.7537C58.6537 74.65 59.4437 74.48 60.1237 74.14C60.8237 73.8 61.3637 73.27 61.7437 72.55C62.1437 71.83 62.3437 70.91 62.3437 69.79C62.3437 68.91 62.2037 68.16 61.9237 67.54C61.6637 66.92 61.3037 66.42 60.8437 66.04C60.4037 65.64 59.8837 65.35 59.2837 65.17C58.6837 64.99 58.0537 64.9 57.3937 64.9V64.63C57.8537 64.63 58.3037 64.56 58.7437 64.42C59.1837 64.26 59.5737 64.02 59.9137 63.7C60.2737 63.38 60.5537 62.96 60.7537 62.44C60.9537 61.9 61.0537 61.26 61.0537 60.52C61.0537 59.5 60.8937 58.68 60.5737 58.06C60.2737 57.44 59.8337 56.99 59.2537 56.71C58.6737 56.43 58.0037 56.29 57.2437 56.29H53.3437C53.3437 56.27 53.3137 56.16 53.2537 55.96C53.2137 55.74 53.1637 55.53 53.1037 55.33C53.0637 55.11 53.0437 55 53.0437 55ZM56.3737 55V76H51.8737V55H56.3737ZM51.9637 73.81V76H49.5637V75.7C49.6037 75.7 49.6737 75.7 49.7737 75.7C49.8737 75.7 49.9337 75.7 49.9537 75.7C50.4737 75.7 50.9137 75.52 51.2737 75.16C51.6537 74.78 51.8537 74.33 51.8737 73.81H51.9637ZM51.9637 57.19H51.8737C51.8537 56.67 51.6537 56.23 51.2737 55.87C50.9137 55.49 50.4737 55.3 49.9537 55.3C49.9337 55.3 49.8737 55.3 49.7737 55.3C49.6737 55.3 49.6037 55.3 49.5637 55.3V55H51.9637V57.19ZM80.5101 57.61C82.1101 57.61 83.5601 57.83 84.8601 58.27C86.1601 58.69 87.2801 59.31 88.2201 60.13C89.1601 60.95 89.8801 61.94 90.3801 63.1C90.9001 64.26 91.1601 65.57 91.1601 67.03C91.1601 68.47 90.9001 69.77 90.3801 70.93C89.8801 72.07 89.1601 73.05 88.2201 73.87C87.2801 74.69 86.1601 75.32 84.8601 75.76C83.5601 76.18 82.1101 76.39 80.5101 76.39C78.9301 76.39 77.4901 76.18 76.1901 75.76C74.8901 75.32 73.7701 74.69 72.8301 73.87C71.8901 73.05 71.1701 72.07 70.6701 70.93C70.1701 69.77 69.9201 68.47 69.9201 67.03C69.9201 65.57 70.1701 64.26 70.6701 63.1C71.1701 61.94 71.8901 60.95 72.8301 60.13C73.7701 59.31 74.8901 58.69 76.1901 58.27C77.4901 57.83 78.9301 57.61 80.5101 57.61ZM80.5101 75.22C81.7301 75.22 82.7901 74.89 83.6901 74.23C84.6101 73.55 85.3101 72.6 85.7901 71.38C86.2901 70.16 86.5401 68.71 86.5401 67.03C86.5401 65.33 86.2901 63.87 85.7901 62.65C85.3101 61.41 84.6101 60.46 83.6901 59.8C82.7901 59.12 81.7301 58.78 80.5101 58.78C79.3101 58.78 78.2601 59.12 77.3601 59.8C76.4601 60.46 75.7601 61.41 75.2601 62.65C74.7601 63.87 74.5101 65.33 74.5101 67.03C74.5101 68.71 74.7601 70.16 75.2601 71.38C75.7601 72.6 76.4601 73.55 77.3601 74.23C78.2601 74.89 79.3101 75.22 80.5101 75.22ZM104.182 57.61C105.782 57.61 107.232 57.83 108.532 58.27C109.832 58.69 110.952 59.31 111.892 60.13C112.832 60.95 113.552 61.94 114.052 63.1C114.572 64.26 114.832 65.57 114.832 67.03C114.832 68.47 114.572 69.77 114.052 70.93C113.552 72.07 112.832 73.05 111.892 73.87C110.952 74.69 109.832 75.32 108.532 75.76C107.232 76.18 105.782 76.39 104.182 76.39C102.602 76.39 101.162 76.18 99.862 75.76C98.562 75.32 97.442 74.69 96.502 73.87C95.562 73.05 94.842 72.07 94.342 70.93C93.842 69.77 93.592 68.47 93.592 67.03C93.592 65.57 93.842 64.26 94.342 63.1C94.842 61.94 95.562 60.95 96.502 60.13C97.442 59.31 98.562 58.69 99.862 58.27C101.162 57.83 102.602 57.61 104.182 57.61ZM104.182 75.22C105.402 75.22 106.462 74.89 107.362 74.23C108.282 73.55 108.982 72.6 109.462 71.38C109.962 70.16 110.212 68.71 110.212 67.03C110.212 65.33 109.962 63.87 109.462 62.65C108.982 61.41 108.282 60.46 107.362 59.8C106.462 59.12 105.402 58.78 104.182 58.78C102.982 58.78 101.932 59.12 101.032 59.8C100.132 60.46 99.432 61.41 98.932 62.65C98.432 63.87 98.182 65.33 98.182 67.03C98.182 68.71 98.432 70.16 98.932 71.38C99.432 72.6 100.132 73.55 101.032 74.23C101.932 74.89 102.982 75.22 104.182 75.22ZM126.971 64.66L133.691 73.99C134.071 74.55 134.471 74.98 134.891 75.28C135.311 75.56 135.801 75.71 136.361 75.73V76H134.051C133.851 76 133.521 75.99 133.061 75.97C132.601 75.95 132.071 75.88 131.471 75.76C130.891 75.62 130.301 75.39 129.701 75.07C129.101 74.75 128.571 74.29 128.111 73.69C128.011 73.55 127.841 73.31 127.601 72.97C127.361 72.63 127.071 72.23 126.731 71.77C126.411 71.31 126.071 70.84 125.711 70.36C125.371 69.88 125.051 69.43 124.751 69.01C124.451 68.59 124.211 68.25 124.031 67.99C123.851 67.73 123.761 67.6 123.761 67.6L126.971 64.66ZM133.331 58.18L125.501 67.42L123.761 67.6L130.871 58.18H133.331ZM135.191 57.97V58.27H135.071C134.491 58.27 133.951 58.38 133.451 58.6C132.951 58.82 132.541 59.12 132.221 59.5L129.911 59.44C130.131 59.16 130.171 58.9 130.031 58.66C129.891 58.4 129.651 58.27 129.311 58.27H129.071V57.97H135.071H135.191ZM122.891 57.97V76H118.571V57.97H122.891ZM118.631 74.11V76H116.591V75.7C116.591 75.7 116.631 75.7 116.711 75.7C116.811 75.7 116.871 75.7 116.891 75.7C117.351 75.7 117.741 75.55 118.061 75.25C118.381 74.93 118.551 74.55 118.571 74.11H118.631ZM122.801 74.11H122.891C122.891 74.55 123.051 74.93 123.371 75.25C123.691 75.55 124.081 75.7 124.541 75.7C124.561 75.7 124.621 75.7 124.721 75.7C124.821 75.7 124.871 75.7 124.871 75.7V76H122.801V74.11ZM122.801 59.89V57.97H124.871V58.27C124.851 58.27 124.791 58.27 124.691 58.27C124.611 58.27 124.561 58.27 124.541 58.27C124.081 58.27 123.691 58.43 123.371 58.75C123.051 59.05 122.891 59.43 122.891 59.89H122.801ZM118.631 59.89H118.571C118.551 59.43 118.381 59.05 118.061 58.75C117.741 58.43 117.351 58.27 116.891 58.27C116.891 58.27 116.841 58.27 116.741 58.27C116.641 58.27 116.581 58.27 116.561 58.27V57.97H118.631V59.89ZM58.7534 94.58L76.3634 110.06L76.6634 113.39L59.0834 97.91L58.7534 94.58ZM58.8734 111.17V113H56.6534V112.7C56.6534 112.7 56.7334 112.7 56.8934 112.7C57.0534 112.7 57.1334 112.7 57.1334 112.7C57.5934 112.7 57.9834 112.56 58.3034 112.28C58.6234 111.98 58.7834 111.61 58.7834 111.17H58.8734ZM62.8934 111.17C62.9134 111.61 63.0834 111.98 63.4034 112.28C63.7234 112.56 64.1034 112.7 64.5434 112.7C64.5434 112.7 64.6234 112.7 64.7834 112.7C64.9634 112.7 65.0534 112.7 65.0534 112.7V113H62.8334V111.17H62.8934ZM58.7534 94.58L62.8934 99.08V113H58.7834V98C58.7834 96.98 58.7334 96.16 58.6334 95.54C58.5334 94.9 58.4834 94.58 58.4834 94.58H58.7534ZM76.6334 95V109.88C76.6334 110.58 76.6534 111.2 76.6934 111.74C76.7534 112.26 76.8034 112.67 76.8434 112.97C76.9034 113.25 76.9334 113.39 76.9334 113.39H76.6634L72.5234 108.62V95H76.6334ZM76.5434 96.83V95H78.7934V95.3C78.7934 95.3 78.7034 95.3 78.5234 95.3C78.3634 95.3 78.2834 95.3 78.2834 95.3C77.8434 95.3 77.4534 95.45 77.1134 95.75C76.7934 96.03 76.6334 96.39 76.6334 96.83H76.5434ZM72.5234 96.83C72.5034 96.39 72.3334 96.03 72.0134 95.75C71.7134 95.45 71.3334 95.3 70.8734 95.3C70.8734 95.3 70.7834 95.3 70.6034 95.3C70.4434 95.3 70.3634 95.3 70.3634 95.3V95H72.5834V96.83H72.5234ZM90.808 94.61C92.408 94.61 93.858 94.83 95.158 95.27C96.458 95.69 97.578 96.31 98.518 97.13C99.458 97.95 100.178 98.94 100.678 100.1C101.198 101.26 101.458 102.57 101.458 104.03C101.458 105.47 101.198 106.77 100.678 107.93C100.178 109.07 99.458 110.05 98.518 110.87C97.578 111.69 96.458 112.32 95.158 112.76C93.858 113.18 92.408 113.39 90.808 113.39C89.228 113.39 87.788 113.18 86.488 112.76C85.188 112.32 84.068 111.69 83.128 110.87C82.188 110.05 81.468 109.07 80.968 107.93C80.468 106.77 80.218 105.47 80.218 104.03C80.218 102.57 80.468 101.26 80.968 100.1C81.468 98.94 82.188 97.95 83.128 97.13C84.068 96.31 85.188 95.69 86.488 95.27C87.788 94.83 89.228 94.61 90.808 94.61ZM90.808 112.22C92.028 112.22 93.088 111.89 93.988 111.23C94.908 110.55 95.608 109.6 96.088 108.38C96.588 107.16 96.838 105.71 96.838 104.03C96.838 102.33 96.588 100.87 96.088 99.65C95.608 98.41 94.908 97.46 93.988 96.8C93.088 96.12 92.028 95.78 90.808 95.78C89.608 95.78 88.558 96.12 87.658 96.8C86.758 97.46 86.058 98.41 85.558 99.65C85.058 100.87 84.808 102.33 84.808 104.03C84.808 105.71 85.058 107.16 85.558 108.38C86.058 109.6 86.758 110.55 87.658 111.23C88.558 111.89 89.608 112.22 90.808 112.22ZM103.073 95.18H107.723L111.773 105.86L110.093 113.33L103.073 95.18ZM116.483 94.58L117.023 97.34L111.053 110.3C111.053 110.3 110.993 110.45 110.873 110.75C110.773 111.05 110.663 111.43 110.543 111.89C110.423 112.35 110.363 112.83 110.363 113.33H110.093L109.283 110L116.243 94.58H116.483ZM116.483 94.58L122.363 106.4L120.953 113.33L114.503 100.34L116.483 94.58ZM126.623 95.18L121.703 110.3C121.703 110.3 121.653 110.46 121.553 110.78C121.473 111.1 121.393 111.5 121.313 111.98C121.233 112.44 121.203 112.89 121.223 113.33H120.953L120.143 110.63L124.703 95.18H126.623ZM124.163 96.95C124.323 96.37 124.283 95.95 124.043 95.69C123.823 95.43 123.543 95.3 123.203 95.3H122.963V95H128.603V95.3C128.603 95.3 128.563 95.3 128.483 95.3C128.423 95.3 128.393 95.3 128.393 95.3C127.933 95.3 127.473 95.44 127.013 95.72C126.553 95.98 126.233 96.39 126.053 96.95H124.163ZM108.413 96.95H103.763C103.543 96.39 103.223 95.98 102.803 95.72C102.383 95.44 101.923 95.3 101.423 95.3C101.423 95.3 101.383 95.3 101.303 95.3C101.223 95.3 101.183 95.3 101.183 95.3V95H109.613V95.3H109.373C109.053 95.3 108.763 95.43 108.503 95.69C108.243 95.95 108.213 96.37 108.413 96.95Z" fill="#FAF6F1"/>
<path d="M110.5 137L94 153.5L78 137" stroke="#FAF6F1"/>
<defs>
<filter id="filter0_d_2_73" x="0" y="0" width="194" height="194" filterUnits="userSpaceOnUse" color-interpolation-filters="sRGB">
<feFlood flood-opacity="0" result="BackgroundImageFix"/>
<feColorMatrix in="SourceAlpha" type="matrix" values="0 0 0 0 0 0 0 0 0 0 0 0 0 0 0 0 0 0 127 0" result="hardAlpha"/>
<feMorphology radius="2" operator="dilate" in="SourceAlpha" result="effect1_dropShadow_2_73"/>
<feOffset dx="4" dy="2"/>
<feGaussianBlur stdDeviation="7.5"/>
<feComposite in2="hardAlpha" operator="out"/>
<feColorMatrix type="matrix" values="0 0 0 0 0 0 0 0 0 0 0 0 0 0 0 0 0 0 0.2 0"/>
<feBlend mode="normal" in2="BackgroundImageFix" result="effect1_dropShadow_2_73"/>
<feBlend mode="normal" in="SourceGraphic" in2="effect1_dropShadow_2_73" result="shape"/>
</filter>
</defs>
</svg>
