<svg width="252" height="252" viewBox="0 0 252 252" fill="none" xmlns="http://www.w3.org/2000/svg">
<path d="M241.339 130.447L225.965 129.556L226.048 128.128L241.422 129.019L241.339 130.447ZM226.303 135.525L225.622 135.486L225.969 129.49L226.65 129.529L226.303 135.525ZM233.583 135L232.924 134.961L233.217 129.91L233.876 129.948L233.583 135ZM240.996 136.377L240.315 136.337L240.662 130.341L241.343 130.381L240.996 136.377ZM229.102 137.032L225.618 135.552L225.829 131.906L226.464 132.736C226.419 133.512 226.5 134.148 226.706 134.645C226.926 135.157 227.247 135.58 227.668 135.913C228.09 136.246 228.572 136.546 229.115 136.812L229.102 137.032ZM232.968 134.964L231.519 134.88L231.531 134.66L231.861 134.679C232.154 134.696 232.408 134.608 232.625 134.415C232.857 134.223 232.981 133.98 232.998 133.687L233.042 133.69L232.968 134.964ZM234.989 135.081L233.539 134.997L233.613 133.723L233.657 133.726C233.655 134.019 233.75 134.275 233.943 134.491C234.151 134.709 234.401 134.827 234.694 134.844L235.001 134.861L234.989 135.081ZM240.381 136.341L238.624 136.239L238.637 136.02L239.032 136.042C239.383 136.063 239.691 135.956 239.954 135.721C240.232 135.488 240.389 135.188 240.425 134.823L240.469 134.826L240.381 136.341ZM241.391 136.4L240.754 136.363L241.151 133.697C241.132 134.019 241.135 134.357 241.158 134.711C241.181 135.08 241.213 135.42 241.254 135.73C241.294 136.041 241.34 136.264 241.391 136.4ZM227.647 128.287L226.044 128.194L226.146 126.437L226.366 126.45C226.366 126.45 226.363 126.494 226.358 126.581C226.352 126.684 226.349 126.735 226.349 126.735C226.327 127.116 226.44 127.446 226.688 127.725C226.95 128.019 227.271 128.184 227.651 128.221L227.647 128.287ZM239.815 128.992L239.819 128.926C240.2 128.948 240.53 128.828 240.809 128.565C241.104 128.303 241.262 127.981 241.284 127.601C241.284 127.601 241.287 127.557 241.292 127.469C241.297 127.381 241.299 127.337 241.299 127.337L241.52 127.328L241.418 129.085L239.815 128.992Z" fill="#772B66"/>
<path d="M237.915 143.068L223.298 149.671L223.626 147.919L238.234 141.36L237.915 143.068ZM226.305 141.123C226.066 140.885 225.799 140.835 225.505 140.974C225.222 141.13 225.055 141.345 225.004 141.619C225.004 141.619 224.996 141.662 224.98 141.749C224.963 141.835 224.955 141.878 224.955 141.878L224.739 141.838L225.62 137.124L225.836 137.164L225.783 137.445C225.703 137.878 225.737 138.294 225.886 138.695C226.049 139.099 226.253 139.443 226.498 139.727L226.305 141.123ZM231.148 145.027L230.181 145.294L225.132 139.853L225.387 138.49L231.148 145.027ZM225.14 147.24L224.744 149.001C224.43 149.166 224.122 149.414 223.822 149.746C223.535 150.081 223.352 150.464 223.271 150.897L223.218 151.178L223.002 151.137L223.959 146.012L224.176 146.052C224.176 146.052 224.168 146.096 224.151 146.182C224.135 146.269 224.127 146.312 224.127 146.312C224.073 146.6 224.153 146.854 224.366 147.072C224.59 147.308 224.848 147.364 225.14 147.24ZM237.581 144.975L237.365 144.935C237.365 144.935 237.373 144.892 237.389 144.805C237.405 144.719 237.414 144.675 237.414 144.675C237.465 144.401 237.378 144.147 237.154 143.911C236.943 143.677 236.692 143.623 236.401 143.748L236.789 142.03C237.117 141.867 237.425 141.619 237.711 141.284C237.997 140.95 238.181 140.566 238.262 140.134L238.314 139.853L238.531 139.893L237.581 144.975ZM236.295 151.74L230.754 145.938L231.764 145.567L236.57 150.27L236.295 151.74ZM236.046 153.193L235.83 153.153L235.887 152.85C235.967 152.417 235.935 151.994 235.789 151.578C235.64 151.178 235.434 150.841 235.172 150.568L235.377 149.107C235.619 149.331 235.88 149.372 236.16 149.231C236.452 149.106 236.625 148.9 236.678 148.611C236.678 148.611 236.686 148.568 236.703 148.482C236.719 148.395 236.727 148.352 236.727 148.352L236.943 148.392L236.046 153.193Z" fill="#772B66"/>
<path d="M234.458 158.282L233.713 160.607C233.399 161.585 232.982 162.383 232.46 163.001C231.953 163.624 231.364 164.044 230.694 164.26C230.038 164.481 229.34 164.473 228.599 164.236C227.803 163.981 227.177 163.58 226.721 163.034C226.274 162.506 225.991 161.899 225.872 161.214C225.766 160.533 225.828 159.837 226.056 159.124C226.298 158.417 226.708 157.762 227.285 157.162L227.495 157.229C227.495 157.229 227.438 157.334 227.324 157.544C227.206 157.768 227.089 158.062 226.973 158.425C226.871 158.792 226.81 159.197 226.792 159.638C226.788 160.083 226.891 160.532 227.1 160.984C227.305 161.45 227.674 161.884 228.208 162.286C228.344 162.391 228.514 162.484 228.719 162.565C228.92 162.66 229.111 162.737 229.292 162.795C230.144 163.068 230.909 162.989 231.585 162.559C232.262 162.129 232.766 161.397 233.097 160.364L233.755 158.311C233.755 158.311 233.811 158.305 233.922 158.295C234.043 158.303 234.159 158.301 234.27 158.291C234.395 158.285 234.458 158.282 234.458 158.282ZM234.37 158.554L221.8 154.527L222.229 153.186L234.8 157.213L234.37 158.554ZM223.557 153.657L222.129 153.5L222.713 151.677L222.922 151.744C222.922 151.744 222.906 151.793 222.875 151.891C222.844 151.989 222.828 152.038 222.828 152.038C222.721 152.373 222.743 152.688 222.895 152.983C223.042 153.292 223.267 153.503 223.57 153.615L223.557 153.657ZM233.467 156.832L233.48 156.79C233.806 156.879 234.111 156.838 234.397 156.668C234.678 156.512 234.872 156.266 234.98 155.931C234.98 155.931 234.995 155.882 235.027 155.784C235.058 155.686 235.074 155.637 235.074 155.637L235.283 155.705L234.699 157.527L233.467 156.832ZM223.161 154.893L223.147 154.935C222.835 154.851 222.532 154.884 222.237 155.036C221.937 155.202 221.734 155.453 221.627 155.788C221.622 155.802 221.606 155.851 221.58 155.935C221.548 156.032 221.533 156.081 221.533 156.081L221.323 156.014L221.907 154.191L223.161 154.893Z" fill="#772B66"/>
<path d="M229.626 171.358L217.628 165.856L218.215 164.576L230.213 170.078L229.626 171.358ZM215.781 171.519L215.179 171.195L217.646 165.816L218.266 166.1L215.781 171.519ZM217.507 173.666L215.152 171.255L216.546 168.216L216.854 169.18C216.548 169.846 216.397 170.422 216.4 170.908C216.411 171.413 216.525 171.868 216.742 172.275C216.972 172.687 217.258 173.084 217.599 173.466L217.507 173.666ZM219.476 165.203L218.077 164.876L218.875 163.136L219.075 163.228C219.075 163.228 219.054 163.274 219.011 163.368C218.968 163.461 218.947 163.508 218.947 163.508C218.794 163.841 218.775 164.163 218.891 164.474C219.006 164.786 219.208 165.015 219.495 165.163L219.476 165.203ZM228.374 170.711L229.654 171.298L228.975 172.778L228.775 172.686C228.775 172.686 228.794 172.646 228.83 172.566C228.867 172.486 228.885 172.446 228.885 172.446C229.032 172.126 229.054 171.797 228.951 171.46C228.855 171.141 228.653 170.912 228.347 170.771L228.374 170.711ZM228.915 169.531L228.934 169.491C229.246 169.619 229.555 169.615 229.859 169.48C230.176 169.351 230.411 169.12 230.564 168.787C230.564 168.787 230.582 168.747 230.619 168.667C230.655 168.587 230.674 168.547 230.674 168.547L230.874 168.638L230.195 170.118L228.915 169.531Z" fill="#772B66"/>
<path d="M221.539 187.036C220.984 187.9 220.324 188.618 219.557 189.188C218.794 189.78 217.972 190.193 217.089 190.428C216.198 190.676 215.292 190.731 214.37 190.592C213.46 190.462 212.574 190.12 211.709 189.565C210.845 189.011 210.158 188.344 209.648 187.563C209.15 186.791 208.828 185.948 208.682 185.036C208.528 184.135 208.554 183.211 208.761 182.264C208.972 181.336 209.355 180.441 209.91 179.576C210.464 178.712 211.118 177.991 211.873 177.412C212.64 176.841 213.469 176.432 214.359 176.184C215.242 175.949 216.138 175.896 217.048 176.027C217.97 176.165 218.863 176.511 219.727 177.066C220.591 177.62 221.272 178.283 221.77 179.056C222.28 179.836 222.612 180.676 222.767 181.577C222.913 182.489 222.88 183.41 222.669 184.337C222.47 185.272 222.093 186.172 221.539 187.036ZM210.465 179.933C209.879 180.846 209.571 181.816 209.54 182.842C209.509 183.868 209.751 184.85 210.263 185.789C210.776 186.728 211.551 187.53 212.588 188.195C213.638 188.868 214.69 189.238 215.745 189.305C216.812 189.379 217.805 189.189 218.725 188.733C219.645 188.278 220.397 187.593 220.983 186.68C221.561 185.778 221.866 184.815 221.896 183.789C221.927 182.763 221.686 181.781 221.173 180.842C220.672 179.911 219.897 179.109 218.848 178.436C217.811 177.771 216.759 177.401 215.692 177.326C214.624 177.251 213.631 177.442 212.712 177.898C211.792 178.353 211.043 179.032 210.465 179.933Z" fill="#772B66"/>
<path d="M213.117 198.086L211.253 200.226C210.801 200.746 210.335 201.158 209.857 201.461C209.37 201.775 208.884 201.975 208.402 202.061C207.909 202.157 207.43 202.138 206.963 202.004C206.497 201.87 206.053 201.62 205.633 201.254C205.168 200.85 204.833 200.364 204.627 199.796C204.422 199.228 204.365 198.634 204.457 198.014C204.54 197.405 204.77 196.828 205.148 196.282C204.907 196.403 204.548 196.469 204.071 196.481C203.584 196.505 203.136 196.494 202.727 196.45C202.727 196.45 202.565 196.435 202.241 196.405C201.928 196.385 201.531 196.361 201.051 196.332C200.572 196.323 200.109 196.319 199.662 196.319C199.205 196.329 198.801 196.347 198.449 196.371C198.088 196.407 197.756 196.487 197.452 196.612C197.151 196.757 196.87 196.98 196.61 197.278L196.444 197.134L196.892 196.619C197.421 196.011 197.937 195.575 198.439 195.312C198.93 195.059 199.393 194.908 199.826 194.857C200.27 194.816 200.674 194.798 201.039 194.804C201.133 194.808 201.362 194.824 201.728 194.85C202.095 194.898 202.493 194.943 202.923 194.986C203.352 195.029 203.739 195.065 204.084 195.093C204.44 195.131 204.654 195.152 204.728 195.157C205.208 195.187 205.684 195.154 206.155 195.059C206.638 194.973 207.019 194.77 207.298 194.449L207.464 194.594C207.464 194.594 207.382 194.678 207.217 194.845C207.062 195.022 206.871 195.253 206.641 195.54C206.382 195.859 206.135 196.188 205.898 196.527C205.673 196.875 205.544 197.268 205.512 197.707C205.47 198.157 205.615 198.662 205.944 199.221C206.027 199.371 206.142 199.53 206.289 199.696C206.436 199.863 206.602 200.018 206.789 200.161C207.108 200.419 207.438 200.599 207.778 200.7C208.108 200.813 208.448 200.846 208.798 200.801C209.139 200.767 209.474 200.661 209.805 200.482C210.136 200.303 210.451 200.053 210.751 199.731C211.226 199.23 211.626 198.781 211.952 198.385C212.278 197.988 212.447 197.794 212.458 197.804C212.469 197.813 212.528 197.835 212.634 197.87C212.742 197.925 212.849 197.969 212.955 198.003C213.063 198.058 213.117 198.086 213.117 198.086ZM212.943 198.285L202.988 189.617L203.912 188.555L213.868 197.223L212.943 198.285ZM204.931 189.53L203.696 188.804L204.924 187.394L205.089 187.538C205.089 187.538 205.056 187.577 204.988 187.654C204.921 187.732 204.887 187.771 204.887 187.771C204.656 188.036 204.552 188.334 204.575 188.665C204.598 188.997 204.726 189.274 204.96 189.496L204.931 189.53ZM212.779 196.363L212.808 196.329C213.072 196.54 213.364 196.629 213.684 196.596C214.004 196.564 214.28 196.415 214.511 196.149C214.511 196.149 214.545 196.111 214.612 196.033C214.68 195.956 214.713 195.917 214.713 195.917L214.879 196.061L213.651 197.472L212.779 196.363ZM204.093 190.492L204.05 190.542C203.797 190.341 203.505 190.252 203.174 190.275C202.843 190.298 202.561 190.442 202.33 190.708C202.33 190.708 202.301 190.741 202.244 190.807C202.176 190.885 202.143 190.923 202.143 190.923L201.962 190.795L203.205 189.368L204.093 190.492Z" fill="#772B66"/>
<path d="M202.329 209.391L193.553 199.53L194.605 198.594L203.381 208.455L202.329 209.391ZM189.586 203.974L189.165 203.435L193.586 199.501L194.039 200.01L189.586 203.974ZM194.512 207.954L194.073 207.461L197.754 204.185L198.193 204.678L194.512 207.954ZM197.924 213.311L197.471 212.801L201.908 208.852L202.362 209.361L197.924 213.311ZM190.304 206.634L189.116 203.479L191.614 201.256L191.509 202.263C190.961 202.75 190.591 203.217 190.399 203.663C190.205 204.13 190.126 204.593 190.162 205.052C190.207 205.522 190.309 206 190.468 206.488L190.304 206.634ZM194.102 207.494L193.269 206.557L193.45 206.396L193.64 206.61C193.805 206.796 194.002 206.906 194.228 206.94C194.464 206.985 194.698 206.905 194.928 206.7L194.957 206.733L194.102 207.494ZM195.316 208.858L194.483 207.921L195.337 207.161L195.367 207.193C195.136 207.398 195.025 207.615 195.033 207.844C195.05 208.084 195.141 208.297 195.307 208.483L195.497 208.697L195.316 208.858ZM197.515 212.85L196.506 211.716L196.686 211.556L196.906 211.802C197.111 212.032 197.363 212.161 197.662 212.189C197.951 212.226 198.221 212.133 198.473 211.909L198.517 211.958L197.515 212.85ZM198.158 213.573L197.778 213.146L199.798 211.643C199.458 211.945 199.121 212.295 198.786 212.691C198.461 213.098 198.252 213.392 198.158 213.573ZM195.508 199.675L194.358 198.814L195.788 197.541L195.934 197.705C195.934 197.705 195.896 197.74 195.819 197.808C195.743 197.876 195.704 197.91 195.704 197.91C195.43 198.154 195.284 198.442 195.265 198.773C195.245 199.104 195.337 199.395 195.541 199.646L195.508 199.675ZM202.426 207.449L202.459 207.419C202.694 207.662 202.973 207.787 203.294 207.795C203.616 207.804 203.914 207.686 204.187 207.442C204.187 207.442 204.226 207.408 204.302 207.34C204.379 207.271 204.418 207.237 204.418 207.237L204.564 207.402L203.134 208.674L202.426 207.449Z" fill="#772B66"/>
<path d="M184.644 225.6L171.078 215.552L172.685 214.595L183.953 223.58L184.644 225.6ZM181.491 211.064C181.429 210.76 181.314 210.538 181.146 210.399C180.978 210.26 180.794 210.182 180.596 210.164C180.392 210.166 180.214 210.212 180.063 210.302L179.893 210.403L179.78 210.214L183.579 207.951L183.692 208.14C183.692 208.14 183.661 208.159 183.598 208.196C183.547 208.226 183.522 208.241 183.522 208.241C183.232 208.414 182.989 208.678 182.791 209.035C182.589 209.412 182.514 209.874 182.568 210.423L181.491 211.064ZM184.644 225.6L183.686 224.379L181.213 209.437L182.347 208.762L184.354 223.136C184.354 223.136 184.368 223.23 184.395 223.419C184.417 223.628 184.451 223.872 184.498 224.151C184.532 224.438 184.582 224.707 184.646 224.959C184.698 225.218 184.754 225.398 184.814 225.499L184.644 225.6ZM177.014 218.853L176.676 218.286L182.592 214.762L182.93 215.329L177.014 218.853ZM173.912 215.579L172.362 216.503C171.918 216.187 171.482 216.028 171.054 216.027C170.634 216.038 170.279 216.13 169.989 216.303C169.989 216.303 169.964 216.318 169.914 216.348C169.863 216.378 169.838 216.393 169.838 216.393L169.725 216.204L173.978 213.671L174.091 213.86L173.921 213.961C173.681 214.103 173.527 214.332 173.458 214.646C173.397 214.973 173.548 215.284 173.912 215.579Z" fill="#772B66"/>
<path d="M171.671 229.491L166.483 217.353L167.778 216.8L172.966 228.938L171.671 229.491ZM161.31 220.306L161.082 219.662L166.524 217.336L166.792 217.963L161.31 220.306ZM161.145 223.056L161.021 219.688L164.096 218.374L163.677 219.295C163.002 219.583 162.503 219.908 162.179 220.269C161.848 220.65 161.626 221.064 161.513 221.511C161.407 221.971 161.352 222.457 161.347 222.97L161.145 223.056ZM168.291 218.112L167.475 216.93L169.235 216.177L169.321 216.38C169.321 216.38 169.274 216.4 169.18 216.44C169.085 216.481 169.038 216.501 169.038 216.501C168.701 216.645 168.47 216.871 168.347 217.179C168.223 217.487 168.218 217.792 168.331 218.095L168.291 218.112ZM171.178 228.171L171.732 229.465L170.235 230.105L170.148 229.903C170.148 229.903 170.189 229.886 170.269 229.851C170.35 229.816 170.391 229.799 170.391 229.799C170.715 229.661 170.952 229.432 171.102 229.112C171.245 228.812 171.25 228.507 171.118 228.197L171.178 228.171ZM172.372 227.661L172.412 227.643C172.558 227.948 172.789 228.152 173.105 228.256C173.426 228.374 173.756 228.361 174.093 228.217C174.093 228.217 174.133 228.2 174.214 228.165C174.295 228.13 174.336 228.113 174.336 228.113L174.422 228.315L172.925 228.955L172.372 227.661Z" fill="#772B66"/>
<path d="M159.745 234.005L155.956 221.36L157.305 220.956L161.094 233.6L159.745 234.005ZM150.483 223.712L150.329 223.046L155.998 221.348L156.194 222.001L150.483 223.712ZM150.01 226.426L150.266 223.065L153.469 222.105L152.948 222.973C152.246 223.184 151.713 223.451 151.351 223.774C150.978 224.115 150.711 224.501 150.55 224.932C150.392 225.378 150.283 225.855 150.221 226.363L150.01 226.426ZM157.667 222.317L156.988 221.051L158.822 220.501L158.885 220.712C158.885 220.712 158.836 220.727 158.738 220.756C158.639 220.786 158.59 220.8 158.59 220.8C158.239 220.906 157.984 221.104 157.827 221.397C157.67 221.689 157.63 221.991 157.709 222.305L157.667 222.317ZM159.404 232.637L159.808 233.986L158.249 234.453L158.186 234.242C158.186 234.242 158.228 234.23 158.312 234.204C158.396 234.179 158.438 234.167 158.438 234.167C158.776 234.065 159.037 233.865 159.223 233.564C159.398 233.282 159.438 232.979 159.341 232.656L159.404 232.637ZM160.647 232.264L160.69 232.252C160.8 232.571 161.007 232.8 161.309 232.939C161.615 233.092 161.944 233.116 162.295 233.011C162.295 233.011 162.337 232.998 162.421 232.973C162.506 232.948 162.548 232.935 162.548 232.935L162.611 233.146L161.052 233.613L160.647 232.264Z" fill="#772B66"/>
<path d="M138.49 235.741L139.228 235.46L140.566 237.25L140.989 238.213L140.871 238.318L139.942 237.87L138.17 236.474L138.49 235.741ZM142.717 235.151L143.222 235.747L141.925 237.594L141.154 238.279L140.989 238.213L141.155 237.168L141.93 235.083L142.717 235.151ZM144.605 238.974L144.165 239.636L142.029 238.978L141.113 238.462L141.154 238.279L142.175 238.114L144.434 238.221L144.605 238.974ZM141.512 241.961L140.751 241.756L140.727 239.516L140.939 238.487L141.113 238.462L141.598 239.394L142.189 241.555L141.512 241.961ZM137.745 239.954L137.701 239.161L139.822 238.442L140.871 238.318L140.939 238.487L140.221 239.231L138.35 240.469L137.745 239.954ZM140.964 238.505L140.889 238.449L140.852 238.343L140.868 238.296L140.965 238.194C140.981 238.207 140.997 238.212 141.011 238.21C141.026 238.208 141.033 238.207 141.033 238.207L141.154 238.279L141.16 238.322L141.157 238.456L141.094 238.487L140.964 238.505Z" fill="#772B66"/>
<path d="M117.891 241.201L119.138 225.852L120.563 225.967L119.317 241.317L117.891 241.201ZM113.162 226.051L113.217 225.371L119.203 225.857L119.148 226.537L113.162 226.051ZM113.519 233.342L113.572 232.684L118.616 233.093L118.562 233.751L113.519 233.342ZM111.971 240.721L112.026 240.041L118.012 240.527L117.957 241.206L111.971 240.721ZM111.591 228.815L113.151 225.366L116.791 225.661L115.947 226.277C115.172 226.214 114.534 226.28 114.032 226.475C113.515 226.683 113.085 226.994 112.743 227.407C112.4 227.821 112.089 228.296 111.81 228.833L111.591 228.815ZM113.569 232.728L113.686 231.28L113.906 231.298L113.879 231.627C113.855 231.919 113.937 232.176 114.125 232.398C114.312 232.633 114.552 232.763 114.844 232.787L114.841 232.831L113.569 232.728ZM113.405 234.745L113.523 233.298L114.794 233.401L114.791 233.445C114.497 233.436 114.24 233.525 114.019 233.713C113.796 233.916 113.673 234.163 113.649 234.456L113.624 234.763L113.405 234.745ZM112.021 240.107L112.163 238.352L112.382 238.37L112.35 238.765C112.322 239.116 112.422 239.425 112.65 239.694C112.877 239.977 113.173 240.141 113.537 240.186L113.534 240.229L112.021 240.107ZM111.939 241.115L111.991 240.479L114.646 240.938C114.325 240.912 113.987 240.906 113.632 240.922C113.263 240.936 112.923 240.96 112.611 240.993C112.299 241.027 112.075 241.067 111.939 241.115ZM120.367 227.563L120.497 225.962L122.251 226.104L122.233 226.324C122.233 226.324 122.19 226.32 122.102 226.313C122 226.305 121.948 226.301 121.948 226.301C121.568 226.27 121.236 226.375 120.952 226.617C120.651 226.872 120.478 227.189 120.433 227.568L120.367 227.563ZM119.381 239.711L119.447 239.716C119.416 240.096 119.529 240.429 119.785 240.715C120.04 241.015 120.358 241.181 120.738 241.211C120.738 241.211 120.782 241.215 120.87 241.222C120.957 241.229 121.001 241.233 121.001 241.233L121.005 241.454L119.251 241.312L119.381 239.711Z" fill="#772B66"/>
<path d="M105.452 237.5L99.186 222.736L100.93 223.103L107.153 237.858L105.452 237.5ZM107.662 225.938C107.906 225.704 107.962 225.439 107.83 225.141C107.68 224.855 107.469 224.683 107.197 224.625C107.197 224.625 107.154 224.616 107.067 224.598C106.981 224.58 106.938 224.571 106.938 224.571L106.984 224.356L111.677 225.344L111.631 225.559L111.351 225.5C110.921 225.41 110.504 225.434 110.099 225.574C109.692 225.728 109.344 225.924 109.054 226.163L107.662 225.938ZM103.649 230.69L103.404 229.717L108.96 224.794L110.316 225.08L103.649 230.69ZM101.574 224.633L99.8227 224.197C99.6649 223.879 99.4235 223.565 99.0988 223.257C98.7709 222.963 98.3918 222.771 97.9612 222.68L97.6813 222.621L97.7267 222.406L102.829 223.481L102.783 223.696C102.783 223.696 102.74 223.687 102.654 223.669C102.568 223.651 102.525 223.642 102.525 223.642C102.238 223.581 101.983 223.655 101.759 223.862C101.518 224.081 101.457 224.338 101.574 224.633ZM103.553 237.123L103.598 236.907C103.598 236.907 103.641 236.917 103.727 236.935C103.814 236.953 103.857 236.962 103.857 236.962C104.129 237.019 104.386 236.939 104.627 236.719C104.865 236.515 104.925 236.265 104.807 235.971L106.516 236.398C106.671 236.73 106.912 237.043 107.24 237.337C107.568 237.631 107.947 237.823 108.377 237.914L108.657 237.973L108.612 238.188L103.553 237.123ZM96.8193 235.682L102.747 230.276L103.094 231.293L98.2832 235.99L96.8193 235.682ZM95.3724 235.4L95.4177 235.185L95.7191 235.248C96.1497 235.339 96.5742 235.316 96.9927 235.179C97.3968 235.039 97.7383 234.841 98.017 234.585L99.473 234.825C99.2433 235.061 99.1961 235.321 99.3313 235.604C99.4491 235.899 99.6515 236.076 99.9386 236.137C99.9386 236.137 99.9816 236.146 100.068 236.164C100.154 236.182 100.197 236.191 100.197 236.191L100.152 236.406L95.3724 235.4Z" fill="#772B66"/>
<path d="M90.2329 233.665L87.9248 232.868C86.9544 232.533 86.166 232.097 85.5596 231.562C84.9484 231.041 84.5421 230.442 84.3408 229.768C84.1346 229.107 84.1585 228.409 84.4123 227.674C84.6853 226.884 85.1002 226.267 85.657 225.823C86.1951 225.388 86.808 225.119 87.4956 225.015C88.1784 224.925 88.8733 225.003 89.5803 225.247C90.2825 225.505 90.9272 225.929 91.5145 226.52L91.4427 226.728C91.4427 226.728 91.3389 226.669 91.1315 226.551C90.9102 226.428 90.6194 226.304 90.2589 226.18C89.8937 226.069 89.4909 226 89.0506 225.972C88.6055 225.957 88.1546 226.05 87.6978 226.249C87.2272 226.443 86.785 226.803 86.3711 227.327C86.263 227.46 86.1661 227.628 86.0804 227.832C85.9808 228.03 85.8999 228.219 85.8376 228.399C85.5455 229.245 85.6067 230.011 86.0213 230.697C86.4359 231.384 87.1561 231.904 88.1819 232.259L90.2197 232.963C90.2197 232.963 90.2238 233.018 90.2318 233.13C90.2212 233.25 90.22 233.366 90.228 233.478C90.2313 233.603 90.2329 233.665 90.2329 233.665ZM89.9626 233.572L94.2732 221.096L95.604 221.556L91.2934 234.032L89.9626 233.572ZM95.1026 222.872L95.2921 221.448L97.1011 222.073L97.0293 222.281C97.0293 222.281 96.9808 222.264 96.8837 222.23C96.7867 222.197 96.7382 222.18 96.7382 222.18C96.4055 222.065 96.0899 222.08 95.7915 222.225C95.4792 222.366 95.2634 222.586 95.1442 222.886L95.1026 222.872ZM91.7044 232.707L91.746 232.722C91.6497 233.045 91.6835 233.352 91.8473 233.641C91.9973 233.926 92.2386 234.126 92.5713 234.241C92.5713 234.241 92.6198 234.257 92.7169 234.291C92.8139 234.324 92.8624 234.341 92.8624 234.341L92.7906 234.549L90.9815 233.924L91.7044 232.707ZM93.8757 222.448L93.8342 222.434C93.9257 222.124 93.8988 221.82 93.7537 221.521C93.5946 221.218 93.3488 221.009 93.0161 220.894C93.0022 220.889 92.9537 220.873 92.8705 220.844C92.7735 220.81 92.7249 220.794 92.7249 220.794L92.7968 220.586L94.6059 221.211L93.8757 222.448Z" fill="#772B66"/>
<path d="M77.4839 228.622L83.2083 216.727L84.477 217.338L78.7526 229.232L77.4839 228.622ZM77.58 214.775L77.9154 214.18L83.248 216.746L82.9522 217.361L77.58 214.775ZM75.4013 216.461L77.8559 214.151L80.8691 215.602L79.8994 215.892C79.2386 215.574 78.6654 215.412 78.1799 215.406C77.6748 215.407 77.2172 215.512 76.8071 215.722C76.3906 215.945 75.9881 216.223 75.5996 216.557L75.4013 216.461ZM83.8268 218.588L84.1797 217.195L85.9043 218.025L85.8089 218.223C85.8089 218.223 85.7627 218.201 85.6702 218.156C85.5776 218.112 85.5314 218.09 85.5314 218.09C85.201 217.931 84.8792 217.906 84.566 218.016C84.2528 218.125 84.0196 218.322 83.8664 218.607L83.8268 218.588ZM78.154 227.381L77.5434 228.65L76.0764 227.944L76.1718 227.746C76.1718 227.746 76.2115 227.765 76.2908 227.803C76.3701 227.841 76.4097 227.86 76.4097 227.86C76.7269 228.013 77.0553 228.041 77.395 227.944C77.715 227.854 77.9482 227.657 78.0945 227.353L78.154 227.381ZM79.3236 227.944L79.3632 227.963C79.2302 228.274 79.2283 228.582 79.3575 228.888C79.4804 229.208 79.7071 229.447 80.0375 229.606C80.0375 229.606 80.0771 229.625 80.1564 229.664C80.2357 229.702 80.2753 229.721 80.2753 229.721L80.1799 229.919L78.713 229.213L79.3236 227.944Z" fill="#772B66"/>
<path d="M61.9345 220.172C61.0827 219.599 60.3799 218.923 59.826 218.143C59.2517 217.368 58.8566 216.536 58.6408 215.649C58.4128 214.753 58.3781 213.845 58.5366 212.927C58.687 212.02 59.0487 211.141 59.6219 210.289C60.1951 209.438 60.8773 208.765 61.6686 208.272C62.4517 207.792 63.3012 207.488 64.217 207.362C65.1206 207.228 66.0438 207.274 66.9866 207.502C67.909 207.734 68.796 208.136 69.6478 208.71C70.4996 209.283 71.2065 209.953 71.7686 210.72C72.3226 211.5 72.7135 212.337 72.9415 213.233C73.1574 214.121 73.1901 215.018 73.0397 215.924C72.8812 216.843 72.5153 217.728 71.9422 218.58C71.369 219.432 70.6908 220.098 69.9077 220.579C69.1165 221.072 68.269 221.385 67.3653 221.52C66.4495 221.646 65.5304 221.593 64.608 221.361C63.6775 221.142 62.7863 220.745 61.9345 220.172ZM69.2793 209.257C68.3789 208.651 67.4163 208.322 66.3914 208.268C65.3665 208.215 64.3791 208.435 63.4292 208.927C62.4793 209.419 61.6604 210.176 60.9726 211.198C60.2766 212.233 59.8836 213.276 59.7936 214.33C59.6954 215.395 59.864 216.392 60.2993 217.322C60.7347 218.251 61.4025 219.019 62.303 219.624C63.1912 220.222 64.1478 220.548 65.1727 220.601C66.1975 220.654 67.1849 220.435 68.1349 219.943C69.0766 219.463 69.8955 218.705 70.5915 217.671C71.2793 216.649 71.6723 215.605 71.7705 214.54C71.8686 213.475 71.7 212.477 71.2647 211.548C70.8294 210.618 70.1676 209.855 69.2793 209.257Z" fill="#772B66"/>
<path d="M51.0619 211.501L48.9626 209.592C48.4527 209.128 48.0513 208.654 47.7585 208.169C47.4548 207.675 47.2655 207.185 47.1907 206.701C47.105 206.207 47.1343 205.728 47.2785 205.264C47.4227 204.8 47.6823 204.362 48.0574 203.95C48.4719 203.494 48.9653 203.17 49.5376 202.977C50.1099 202.784 50.7048 202.74 51.3224 202.846C51.9291 202.942 52.5012 203.185 53.0388 203.574C52.9234 203.331 52.8649 202.97 52.8631 202.493C52.8504 202.005 52.8708 201.558 52.9242 201.15C52.9242 201.15 52.9425 200.989 52.9791 200.665C53.0059 200.352 53.0391 199.956 53.0787 199.477C53.0976 198.998 53.1121 198.535 53.1221 198.089C53.1212 197.632 53.1125 197.227 53.0959 196.875C53.0684 196.513 52.9955 196.179 52.8772 195.873C52.7382 195.568 52.5222 195.282 52.2293 195.016L52.3773 194.853L52.8818 195.312C53.4785 195.855 53.903 196.38 54.1554 196.887C54.397 197.385 54.5384 197.85 54.5797 198.284C54.6111 198.729 54.6198 199.134 54.6059 199.498C54.6 199.592 54.5797 199.821 54.545 200.186C54.4896 200.552 54.4357 200.949 54.3833 201.377C54.3308 201.805 54.2868 202.192 54.2512 202.536C54.2057 202.891 54.1794 203.105 54.1725 203.178C54.1329 203.658 54.1554 204.134 54.2401 204.608C54.3149 205.092 54.5096 205.478 54.8243 205.764L54.6762 205.926C54.6762 205.926 54.5944 205.842 54.4306 205.673C54.2571 205.515 54.0297 205.319 53.7486 205.083C53.435 204.817 53.1115 204.562 52.7781 204.319C52.4348 204.086 52.0442 203.948 51.6062 203.907C51.1573 203.855 50.6496 203.988 50.0832 204.306C49.9313 204.386 49.7704 204.497 49.6007 204.64C49.4309 204.783 49.2725 204.946 49.1255 205.13C48.86 205.444 48.6729 205.769 48.5642 206.106C48.4448 206.434 48.4037 206.773 48.4411 207.125C48.4676 207.466 48.5666 207.804 48.7382 208.138C48.9097 208.473 49.1533 208.794 49.4689 209.101C49.9591 209.586 50.3989 209.996 50.7885 210.331C51.1781 210.665 51.368 210.838 51.3581 210.849C51.3482 210.86 51.325 210.918 51.2885 211.024C51.2312 211.13 51.1843 211.236 51.1478 211.342C51.0905 211.448 51.0619 211.501 51.0619 211.501ZM50.8666 211.324L59.7493 201.56L60.7908 202.507L51.9081 212.271L50.8666 211.324ZM59.7945 203.504L60.5467 202.285L61.9299 203.543L61.7819 203.706C61.7819 203.706 61.7439 203.672 61.668 203.603C61.592 203.533 61.5541 203.499 61.5541 203.499C61.2937 203.262 60.9977 203.151 60.6662 203.167C60.3347 203.183 60.055 203.305 59.827 203.534L59.7945 203.504ZM52.792 211.202L52.8245 211.231C52.6084 211.491 52.5131 211.781 52.5386 212.101C52.5642 212.422 52.7071 212.701 52.9675 212.938C52.9675 212.938 53.0055 212.972 53.0814 213.041C53.1574 213.11 53.1953 213.145 53.1953 213.145L53.0473 213.308L51.664 212.049L52.792 211.202ZM58.8506 202.646L58.8018 202.601C59.0081 202.353 59.1034 202.063 59.0877 201.731C59.072 201.4 58.934 201.115 58.6736 200.879C58.6736 200.879 58.6411 200.849 58.576 200.79C58.5 200.721 58.4621 200.686 58.4621 200.686L58.5938 200.509L59.9934 201.782L58.8506 202.646Z" fill="#772B66"/>
<path d="M40.0274 200.506L50.077 191.947L50.9899 193.019L40.9403 201.578L40.0274 200.506ZM45.7208 187.884L46.2685 187.475L50.1055 191.981L49.5863 192.423L45.7208 187.884ZM41.6344 192.722L42.1369 192.294L45.332 196.046L44.8295 196.474L41.6344 192.722ZM36.2047 196.017L36.7239 195.575L40.5752 200.097L40.0559 200.539L36.2047 196.017ZM43.0461 188.543L46.2257 187.425L48.3939 189.971L47.3897 189.843C46.9142 189.285 46.4557 188.905 46.014 188.703C45.5518 188.5 45.0907 188.411 44.6309 188.436C44.1599 188.471 43.6792 188.563 43.1887 188.711L43.0461 188.543ZM42.1034 192.323L43.0581 191.51L43.215 191.694L42.9972 191.879C42.8074 192.041 42.693 192.235 42.6541 192.46C42.6041 192.696 42.6789 192.931 42.8786 193.165L42.8451 193.194L42.1034 192.323ZM40.7132 193.507L41.6679 192.693L42.4096 193.564L42.3761 193.593C42.1764 193.358 41.962 193.242 41.7329 193.245C41.4927 193.257 41.2776 193.344 41.0878 193.505L40.8701 193.691L40.7132 193.507ZM36.6737 195.617L37.8294 194.633L37.9863 194.817L37.735 195.031C37.5005 195.231 37.3661 195.48 37.3317 195.779C37.2879 196.067 37.3753 196.339 37.594 196.596L37.5438 196.639L36.6737 195.617ZM35.9367 196.245L36.3722 195.874L37.8308 197.926C37.536 197.58 37.1943 197.235 36.8056 196.892C36.4058 196.558 36.1161 196.343 35.9367 196.245ZM49.8894 193.899L50.7759 192.768L52.0169 194.225L51.8494 194.368C51.8494 194.368 51.8161 194.329 51.7496 194.251C51.683 194.172 51.6497 194.133 51.6497 194.133C51.412 193.854 51.1277 193.701 50.7969 193.675C50.4661 193.648 50.1731 193.734 49.9179 193.932L49.8894 193.899ZM41.967 200.645L41.9955 200.679C41.7482 200.909 41.6169 201.184 41.6015 201.506C41.5862 201.827 41.6974 202.127 41.9351 202.406C41.9351 202.406 41.9684 202.445 42.035 202.524C42.1015 202.602 42.1348 202.641 42.1348 202.641L41.9673 202.783L40.7263 201.326L41.967 200.645Z" fill="#772B66"/>
<path d="M24.2408 182.541L34.5869 169.201L35.5082 170.828L26.2763 181.895L24.2408 182.541ZM38.8429 179.71C39.1487 179.655 39.3729 179.544 39.5155 179.38C39.658 179.215 39.7406 179.033 39.7632 178.835C39.7658 178.631 39.7238 178.453 39.6371 178.299L39.5395 178.127L39.731 178.019L41.9096 181.867L41.7182 181.975C41.7182 181.975 41.7001 181.943 41.664 181.879C41.6351 181.828 41.6206 181.803 41.6206 181.803C41.4544 181.509 41.1953 181.26 40.8432 181.055C40.4711 180.844 40.0102 180.76 39.4607 180.801L38.8429 179.71ZM24.2408 182.541L25.4833 181.61L40.4756 179.468L41.126 180.617L26.7112 182.306C26.7112 182.306 26.6166 182.317 26.4273 182.34C26.218 182.357 25.9732 182.386 25.6929 182.427C25.4054 182.455 25.1351 182.499 24.882 182.558C24.6216 182.604 24.4404 182.656 24.3383 182.714L24.2408 182.541ZM31.1553 175.062L31.7296 174.737L35.1222 180.729L34.5478 181.054L31.1553 175.062ZM34.4965 172.033L33.6077 170.463C33.9332 170.026 34.1014 169.593 34.1122 169.166C34.1102 168.746 34.0262 168.389 33.86 168.095C33.86 168.095 33.8455 168.07 33.8166 168.019C33.7877 167.968 33.7732 167.942 33.7732 167.942L33.9647 167.834L36.4034 172.141L36.212 172.25L36.1144 172.077C35.9772 171.835 35.7522 171.676 35.4396 171.6C35.1142 171.531 34.7999 171.676 34.4965 172.033Z" fill="#772B66"/>
<path d="M20.5894 169.409L32.8407 164.495L33.3648 165.802L21.1136 170.716L20.5894 169.409ZM30.0046 159.257L30.654 159.044L32.857 164.536L32.2241 164.79L30.0046 159.257ZM27.2591 159.03L30.6294 158.982L31.8743 162.086L30.9628 161.646C30.6898 160.965 30.3761 160.459 30.0218 160.127C29.6483 159.787 29.2396 159.556 28.7955 159.433C28.3379 159.317 27.853 159.25 27.341 159.235L27.2591 159.03ZM32.0416 166.285L33.242 165.496L33.9545 167.272L33.7503 167.354C33.7503 167.354 33.7312 167.307 33.693 167.211C33.6548 167.116 33.6357 167.068 33.6357 167.068C33.4992 166.728 33.2783 166.493 32.9732 166.362C32.668 166.232 32.363 166.22 32.058 166.326L32.0416 166.285ZM21.9208 168.946L20.614 169.471L20.0079 167.96L20.2121 167.878C20.2121 167.878 20.2285 167.919 20.2613 168C20.294 168.082 20.3104 168.123 20.3104 168.123C20.4414 168.449 20.665 168.692 20.9811 168.849C21.2781 168.999 21.5831 169.011 21.8962 168.885L21.9208 168.946ZM22.404 170.151L22.4204 170.192C22.1127 170.331 21.9032 170.557 21.7919 170.871C21.6669 171.189 21.6727 171.519 21.8092 171.859C21.8092 171.859 21.8255 171.9 21.8583 171.982C21.8911 172.064 21.9074 172.104 21.9074 172.104L21.7032 172.186L21.0972 170.675L22.404 170.151Z" fill="#772B66"/>
<path d="M16.3376 157.388L29.0649 153.887L29.4383 155.244L16.711 158.745L16.3376 157.388ZM26.8377 148.362L27.507 148.223L29.0765 153.929L28.419 154.11L26.8377 148.362ZM24.1352 147.827L27.4895 148.159L28.3764 151.384L27.5204 150.843C27.3259 150.136 27.0713 149.598 26.7567 149.228C26.4239 148.848 26.0439 148.572 25.6164 148.401C25.1748 148.233 24.7006 148.113 24.1936 148.039L24.1352 147.827ZM28.0691 155.575L29.3508 154.926L29.8584 156.772L29.6463 156.83C29.6463 156.83 29.6327 156.78 29.6054 156.681C29.5782 156.582 29.5646 156.533 29.5646 156.533C29.4674 156.179 29.2745 155.921 28.986 155.757C28.6975 155.593 28.3957 155.546 28.0807 155.618L28.0691 155.575ZM17.7127 157.078L16.3551 157.451L15.9233 155.882L16.1354 155.823C16.1354 155.823 16.1471 155.866 16.1704 155.951C16.1938 156.035 16.2055 156.078 16.2055 156.078C16.2988 156.417 16.4936 156.683 16.7899 156.875C17.0682 157.057 17.3699 157.104 17.6952 157.014L17.7127 157.078ZM18.0569 158.329L18.0686 158.372C17.7472 158.475 17.5135 158.677 17.3676 158.975C17.2074 159.278 17.176 159.606 17.2732 159.96C17.2732 159.96 17.2849 160.002 17.3082 160.087C17.3316 160.172 17.3432 160.214 17.3432 160.214L17.1311 160.272L16.6993 158.703L18.0569 158.329Z" fill="#772B66"/>
<path d="M15.0924 136.295L15.3561 137.039L13.5355 138.336L12.5633 138.737L12.4607 138.616L12.9298 137.698L14.3668 135.958L15.0924 136.295ZM15.5848 140.534L14.9775 141.026L13.1608 139.686L12.4936 138.9L12.5633 138.737L13.6041 138.926L15.6708 139.749L15.5848 140.534ZM11.7187 142.334L11.0678 141.878L11.7739 139.759L12.3112 138.855L12.4936 138.9L12.6348 139.925L12.4759 142.18L11.7187 142.334ZM8.80456 139.174L9.02674 138.417L11.2669 138.445L12.2909 138.68L12.3112 138.855L11.3684 139.319L9.19426 139.859L8.80456 139.174ZM10.8973 135.453L11.6916 135.427L12.3607 137.565L12.4607 138.616L12.2909 138.68L11.5632 137.945L10.3682 136.046L10.8973 135.453ZM12.2716 138.704L12.3295 138.631L12.4363 138.597L12.4825 138.613L12.5826 138.713C12.5697 138.729 12.5641 138.744 12.5658 138.759C12.5675 138.773 12.5684 138.781 12.5684 138.781L12.4936 138.9L12.4499 138.905L12.3163 138.899L12.2868 138.836L12.2716 138.704Z" fill="#772B66"/>
<path d="M10.0195 115.73L25.3422 117.271L25.1991 118.694L9.8764 117.153L10.0195 115.73ZM25.2581 111.293L25.9367 111.361L25.3356 117.337L24.657 117.269L25.2581 111.293ZM17.9618 111.51L18.6184 111.576L18.112 116.61L17.4554 116.544L17.9618 111.51ZM10.614 109.82L11.2926 109.888L10.6915 115.864L10.0129 115.796L10.614 109.82ZM22.5249 109.669L25.9433 111.296L25.5778 114.929L24.9785 114.073C25.0563 113.299 25.0026 112.66 24.8176 112.155C24.6194 111.634 24.3168 111.198 23.9099 110.848C23.5029 110.497 23.0339 110.177 22.5028 109.888L22.5249 109.669ZM18.5747 111.571L20.0194 111.717L19.9974 111.936L19.669 111.903C19.3772 111.873 19.1188 111.95 18.8939 112.134C18.6545 112.317 18.5201 112.554 18.4907 112.845L18.447 112.841L18.5747 111.571ZM16.5608 111.369L18.0055 111.514L17.8778 112.784L17.8341 112.779C17.8488 112.486 17.7643 112.227 17.5806 112.002C17.3822 111.776 17.1371 111.648 16.8453 111.619L16.5388 111.588L16.5608 111.369ZM11.2269 109.882L12.9781 110.058L12.956 110.277L12.562 110.237C12.2118 110.202 11.9002 110.296 11.6271 110.519C11.3395 110.741 11.17 111.033 11.1187 111.396L11.075 111.392L11.2269 109.882ZM10.22 109.78L10.8548 109.844L10.3454 112.49C10.3777 112.169 10.3895 111.832 10.381 111.477C10.3739 111.108 10.3566 110.767 10.329 110.455C10.3015 110.142 10.2651 109.918 10.22 109.78ZM23.6078 118.468L25.2057 118.629L25.0296 120.38L24.8107 120.358C24.8107 120.358 24.8151 120.314 24.8239 120.226C24.8341 120.124 24.8393 120.073 24.8393 120.073C24.8774 119.694 24.7784 119.359 24.5421 119.07C24.2928 118.765 23.9791 118.586 23.6011 118.533L23.6078 118.468ZM11.4809 117.248L11.4743 117.314C11.0949 117.276 10.7599 117.382 10.4694 117.633C10.1642 117.882 9.99255 118.196 9.95439 118.576C9.95439 118.576 9.94998 118.62 9.94117 118.707C9.93237 118.795 9.92796 118.839 9.92796 118.839L9.70687 118.838L9.88301 117.087L11.4809 117.248Z" fill="#772B66"/>
<path d="M13.9423 103.41L28.8232 97.427L28.4228 99.1635L13.5517 105.104L13.9423 103.41ZM25.4607 105.841C25.6894 106.089 25.9538 106.15 26.2539 106.024C26.543 105.88 26.7189 105.672 26.7815 105.4C26.7815 105.4 26.7914 105.357 26.8111 105.272C26.8309 105.186 26.8408 105.143 26.8408 105.143L27.0552 105.192L25.9775 109.866L25.7632 109.816L25.8274 109.538C25.9263 109.109 25.9097 108.691 25.7777 108.284C25.6315 107.874 25.4418 107.522 25.2087 107.227L25.4607 105.841ZM20.7852 101.737L21.763 101.511L26.579 107.16L26.2675 108.51L20.7852 101.737ZM26.8811 99.7788L27.3508 98.0358C27.6717 97.884 27.9894 97.6487 28.3038 97.3298C28.6038 97.0077 28.8033 96.6322 28.9021 96.2035L28.9664 95.9248L29.1808 95.9742L28.0092 101.055L27.7948 101.005C27.7948 101.005 27.8047 100.963 27.8245 100.877C27.8443 100.791 27.8542 100.748 27.8542 100.748C27.9201 100.462 27.8513 100.206 27.6479 99.9782C27.4335 99.7331 27.1779 99.6666 26.8811 99.7788ZM14.3558 101.519L14.5702 101.568C14.5702 101.568 14.5603 101.611 14.5405 101.697C14.5208 101.783 14.5109 101.826 14.5109 101.826C14.4483 102.097 14.5242 102.356 14.7386 102.601C14.9387 102.842 15.1871 102.907 15.4839 102.795L15.0242 104.495C14.6889 104.644 14.3712 104.879 14.0712 105.201C13.7711 105.523 13.5717 105.899 13.4728 106.328L13.4085 106.606L13.1942 106.557L14.3558 101.519ZM15.9245 94.814L21.2171 100.843L20.1931 101.172L15.5884 96.2717L15.9245 94.814ZM16.2343 93.3727L16.4486 93.4222L16.3794 93.7223C16.2806 94.151 16.2955 94.5759 16.4242 94.9969C16.5562 95.4037 16.7475 95.7488 16.9982 96.0324L16.7313 97.4835C16.4993 97.2494 16.2404 97.1972 15.9546 97.327C15.6578 97.4392 15.4765 97.6382 15.4106 97.924C15.4106 97.924 15.4007 97.9669 15.3809 98.0526C15.3611 98.1384 15.3512 98.1813 15.3512 98.1813L15.1369 98.1318L16.2343 93.3727Z" fill="#772B66"/>
<path d="M18.1221 88.0693L18.9714 85.7798C19.3285 84.8172 19.7815 84.0388 20.3304 83.4446C20.8656 82.8453 21.4727 82.4527 22.1518 82.2666C22.8172 82.0754 23.5143 82.1149 24.2431 82.3853C25.0269 82.676 25.6344 83.1048 26.0656 83.6714C26.4881 84.2192 26.7435 84.838 26.8318 85.5278C26.9063 86.2125 26.8135 86.9054 26.5533 87.6067C26.2795 88.3029 25.8405 88.9379 25.2366 89.5117L25.0304 89.4352C25.0304 89.4352 25.0918 89.3328 25.2147 89.1281C25.3426 88.9097 25.4729 88.6217 25.6055 88.2641C25.7244 87.9015 25.8028 87.5004 25.8407 87.0608C25.8649 86.6161 25.7826 86.1632 25.5939 85.7021C25.4102 85.2273 25.061 84.7771 24.5462 84.3515C24.4153 84.2403 24.2493 84.1397 24.0482 84.0494C23.8521 83.9454 23.6647 83.8602 23.4859 83.7939C22.6471 83.4827 21.8799 83.5267 21.1844 83.9257C20.4889 84.3247 19.9524 85.033 19.5749 86.0506L18.8251 88.072C18.8251 88.072 18.7693 88.0747 18.6577 88.0803C18.5375 88.067 18.4217 88.0631 18.3101 88.0687C18.1848 88.0691 18.1221 88.0693 18.1221 88.0693ZM18.2216 87.8012L30.5976 92.392L30.1079 93.7121L17.7319 89.1213L18.2216 87.8012ZM28.8031 93.1812L30.2226 93.4027L29.557 95.1972L29.3507 95.1207C29.3507 95.1207 29.3685 95.0726 29.4043 94.9763C29.44 94.8801 29.4578 94.8319 29.4578 94.8319C29.5802 94.5019 29.5722 94.1861 29.4338 93.8845C29.3005 93.5691 29.0852 93.3484 28.7878 93.2224L28.8031 93.1812ZM19.0467 89.5621L19.0314 89.6033C18.71 89.4997 18.4028 89.5266 18.1098 89.6838C17.822 89.8273 17.6168 90.0641 17.4944 90.3941C17.4944 90.3941 17.4765 90.4423 17.4408 90.5385C17.4051 90.6348 17.3873 90.6829 17.3873 90.6829L17.181 90.6064L17.8467 88.8119L19.0467 89.5621ZM29.2545 91.9642L29.2698 91.9229C29.5774 92.0214 29.882 92.0014 30.1837 91.863C30.4904 91.7109 30.705 91.4698 30.8274 91.1398C30.8325 91.126 30.8504 91.0779 30.881 90.9954C30.9167 90.8991 30.9345 90.851 30.9345 90.851L31.1408 90.9275L30.4751 92.722L29.2545 91.9642Z" fill="#772B66"/>
<path d="M23.2969 75.6757L35.0607 81.6634L34.422 82.9182L22.6582 76.9305L23.2969 75.6757ZM37.1374 76.0799L37.7252 76.4285L35.0407 81.7026L34.433 81.3932L37.1374 76.0799ZM35.5003 73.8642L37.7552 76.3696L36.2383 79.3498L35.9698 78.3738C36.3024 77.7203 36.4771 77.1509 36.4936 76.6656C36.5038 76.1606 36.4087 75.7008 36.2084 75.2861C35.9949 74.8648 35.7256 74.4562 35.4005 74.0603L35.5003 73.8642ZM33.1872 82.2403L34.5717 82.6241L33.7035 84.3298L33.5074 84.23C33.5074 84.23 33.5307 84.1843 33.5773 84.0928C33.6239 84.0013 33.6472 83.9556 33.6472 83.9556C33.8135 83.6288 33.8453 83.3076 33.7426 82.992C33.6399 82.6764 33.4481 82.4389 33.1672 82.2795L33.1872 82.2403ZM24.5217 76.3732L23.2669 75.7345L24.0054 74.2836L24.2015 74.3834C24.2015 74.3834 24.1815 74.4227 24.1416 74.5011C24.1017 74.5795 24.0817 74.6187 24.0817 74.6187C23.922 74.9324 23.8869 75.2601 23.9763 75.6019C24.0592 75.9239 24.251 76.1614 24.5517 76.3144L24.5217 76.3732ZM23.933 77.53L23.913 77.5692C23.6057 77.4292 23.2975 77.4205 22.9883 77.5429C22.6661 77.6587 22.4218 77.8799 22.2555 78.2067C22.2555 78.2067 22.2355 78.2459 22.1956 78.3243C22.1557 78.4028 22.1357 78.442 22.1357 78.442L21.9397 78.3422L22.6781 76.8913L23.933 77.53Z" fill="#772B66"/>
<path d="M32.297 59.8977C32.8888 59.0587 33.5803 58.3709 34.3716 57.8342C35.1594 57.2771 35.9994 56.9004 36.8917 56.7041C37.7924 56.4958 38.7002 56.481 39.6151 56.6597C40.5181 56.8299 41.3891 57.2109 42.228 57.8026C43.067 58.3944 43.7242 59.0912 44.1996 59.8931C44.663 60.6866 44.9477 61.5425 45.0538 62.4609C45.1683 63.3672 45.1014 64.2892 44.8529 65.2267C44.6009 66.1438 44.1791 67.0218 43.5873 67.8608C42.9956 68.6998 42.3101 69.3919 41.5307 69.937C40.7394 70.4737 39.8934 70.8462 38.9927 71.0544C38.1005 71.2507 37.2029 71.2638 36.2999 71.0935C35.3849 70.9149 34.508 70.5297 33.669 69.9379C32.83 69.3462 32.1788 68.6536 31.7155 67.8601C31.2401 67.0582 30.9451 66.2041 30.8306 65.2977C30.7245 64.3793 30.7975 63.4616 31.0494 62.5445C31.2894 61.619 31.7053 60.7367 32.297 59.8977ZM43.048 67.4804C43.6735 66.5935 44.0242 65.6383 44.0999 64.6148C44.1756 63.5914 43.9779 62.5994 43.5067 61.6389C43.0355 60.6784 42.2965 59.8431 41.2897 59.133C40.271 58.4145 39.2361 57.9987 38.1851 57.8856C37.1222 57.7641 36.1214 57.9107 35.1827 58.3255C34.244 58.7403 33.4619 59.3912 32.8364 60.2781C32.2193 61.1531 31.8729 62.1023 31.7971 63.1257C31.7214 64.1492 31.9192 65.1411 32.3904 66.1017C32.8496 67.0537 33.5886 67.889 34.6073 68.6075C35.6141 69.3176 36.649 69.7334 37.7119 69.855C38.7748 69.9765 39.7757 69.8298 40.7143 69.415C41.653 69.0002 42.4309 68.3553 43.048 67.4804Z" fill="#772B66"/>
<path d="M40.8697 49.5625L42.8248 47.5054C43.2997 47.0057 43.7825 46.6147 44.2733 46.3325C44.7742 46.0397 45.2676 45.8611 45.7536 45.7969C46.2496 45.722 46.7279 45.7617 47.1883 45.916C47.6486 46.0703 48.0808 46.3394 48.4848 46.7233C48.9313 47.1477 49.2449 47.6481 49.4256 48.2244C49.6062 48.8008 49.6369 49.3965 49.5177 50.0116C49.4086 50.6161 49.1533 51.1828 48.7518 51.7118C48.998 51.6018 49.3598 51.5511 49.8372 51.5597C50.3247 51.5576 50.7716 51.5878 51.1778 51.65C51.1778 51.65 51.3391 51.6719 51.6619 51.7155C51.9739 51.7491 52.3692 51.7909 52.8477 51.841C53.3257 51.8703 53.7879 51.8949 54.2345 51.9146C54.6912 51.9238 55.0958 51.9238 55.4483 51.9149C55.8109 51.8953 56.1464 51.8297 56.4548 51.7181C56.7627 51.5858 57.053 51.3761 57.3258 51.089L57.4853 51.2406L57.0155 51.735C56.4598 52.3197 55.9256 52.7327 55.413 52.974C54.9106 53.2046 54.4419 53.3358 54.007 53.3676C53.5614 53.3893 53.1568 53.3893 52.7932 53.3674C52.6996 53.3594 52.4707 53.3341 52.1065 53.2915C51.7418 53.2281 51.346 53.1656 50.9191 53.1038C50.4922 53.0421 50.107 52.9896 49.7636 52.9465C49.4095 52.8933 49.196 52.8624 49.1232 52.8539C48.6447 52.8038 48.1678 52.8159 47.6925 52.8903C47.2065 52.9545 46.817 53.1408 46.524 53.4491L46.3645 53.2975C46.3645 53.2975 46.4507 53.2175 46.623 53.0575C46.7846 52.8874 46.9865 52.6644 47.2284 52.3885C47.5007 52.0808 47.7623 51.7629 48.0133 51.4349C48.2537 51.0968 48.3995 50.7092 48.4506 50.2722C48.5118 49.8246 48.3899 49.3141 48.0849 48.7409C48.0083 48.5873 47.9004 48.424 47.7612 48.2512C47.6219 48.0784 47.4622 47.9165 47.282 47.7654C46.9742 47.4932 46.6528 47.299 46.3179 47.1831C45.9931 47.0565 45.6547 47.008 45.3027 47.0377C44.9609 47.0568 44.6209 47.1484 44.2827 47.3126C43.9445 47.4769 43.6185 47.7134 43.3048 48.0222C42.8087 48.5017 42.3891 48.9325 42.0461 49.3147C41.7031 49.6969 41.5263 49.883 41.5156 49.8729C41.505 49.8628 41.4473 49.8383 41.3426 49.7995C41.2373 49.7399 41.1323 49.6907 41.0276 49.6519C40.9224 49.5923 40.8697 49.5625 40.8697 49.5625ZM41.0516 49.3711L50.6198 58.4646L49.6498 59.4852L40.0816 50.3917L41.0516 49.3711ZM48.6747 58.4674L49.8771 59.246L48.5889 60.6015L48.4294 60.4499C48.4294 60.4499 48.4648 60.4127 48.5355 60.3383C48.6062 60.2638 48.6416 60.2266 48.6416 60.2266C48.8841 59.9715 49.0011 59.678 48.9927 59.3463C48.9842 59.0145 48.8681 58.7322 48.6443 58.4993L48.6747 58.4674ZM41.1318 51.2987L41.1014 51.3306C40.8468 51.1089 40.5589 51.0072 40.2378 51.0258C39.9167 51.0443 39.6349 51.1812 39.3924 51.4363C39.3924 51.4363 39.357 51.4735 39.2863 51.548C39.2156 51.6224 39.1802 51.6596 39.1802 51.6596L39.0207 51.508L40.309 50.1525L41.1318 51.2987ZM49.5537 57.5424L49.5991 57.4946C49.8431 57.7063 50.131 57.8079 50.4628 57.7994C50.7945 57.791 51.0817 57.6592 51.3242 57.404C51.3242 57.404 51.3545 57.3721 51.4151 57.3084C51.4858 57.2339 51.5212 57.1967 51.5212 57.1967L51.6958 57.3323L50.3924 58.7038L49.5537 57.5424Z" fill="#772B66"/>
<path d="M52.2804 38.5457L60.6173 48.7798L59.5256 49.669L51.1888 39.435L52.2804 38.5457ZM64.7748 44.5133L65.1715 45.0699L60.5832 48.8076L60.1524 48.2788L64.7748 44.5133ZM60.027 40.3222L60.4439 40.8339L56.6232 43.9464L56.2063 43.4347L60.027 40.3222ZM56.8516 34.8219L57.2824 35.3506L52.677 39.1022L52.2463 38.5735L56.8516 34.8219ZM64.1738 41.8248L65.2226 45.0282L62.63 47.1402L62.7792 46.139C63.3477 45.6759 63.7377 45.2257 63.9492 44.7886C64.1628 44.3309 64.2618 43.8719 64.2463 43.4116C64.2215 42.94 64.1405 42.4574 64.0032 41.9638L64.1738 41.8248ZM60.4161 40.7998L61.2081 41.7721L61.0205 41.9249L60.8398 41.7032C60.6824 41.5099 60.4912 41.3913 60.2663 41.3475C60.0322 41.2923 59.7957 41.3619 59.5569 41.5565L59.5291 41.5224L60.4161 40.7998ZM59.2628 39.3841L60.0548 40.3564L59.1679 41.0789L59.1401 41.0448C59.3789 40.8502 59.4996 40.6384 59.5021 40.4093C59.4954 40.1689 59.4133 39.952 59.2558 39.7587L59.0752 39.537L59.2628 39.3841ZM57.2407 35.2995L58.1994 36.4764L58.0118 36.6292L57.8034 36.3734C57.6089 36.1346 57.3625 35.9948 57.0644 35.9539C56.7776 35.9037 56.5035 35.9852 56.2419 36.1982L56.2002 36.1471L57.2407 35.2995ZM56.6293 34.549L56.9906 34.9925L54.9072 36.4059C55.2597 36.1187 55.6118 35.7846 55.9634 35.4036C56.3059 35.0111 56.5278 34.7263 56.6293 34.549ZM58.6705 48.5496L59.7815 49.4606L58.2976 50.6695L58.1586 50.4989C58.1586 50.4989 58.1984 50.4665 58.278 50.4016C58.3576 50.3368 58.3974 50.3044 58.3974 50.3044C58.6817 50.0728 58.8407 49.7919 58.8744 49.4618C58.9081 49.1316 58.8288 48.8368 58.6364 48.5774L58.6705 48.5496ZM52.0983 40.4817L52.0641 40.5095C51.8397 40.2573 51.5671 40.1199 51.2462 40.0976C50.9253 40.0752 50.6227 40.1798 50.3384 40.4114C50.3384 40.4114 50.2986 40.4438 50.219 40.5087C50.1394 40.5735 50.0996 40.6059 50.0996 40.6059L49.9607 40.4354L51.4446 39.2265L52.0983 40.4817Z" fill="#772B66"/>
<path d="M70.4908 23.1608L83.5992 33.7998L81.9519 34.6849L71.0924 25.2102L70.4908 23.1608ZM72.9984 37.822C73.0467 38.129 73.1518 38.3556 73.3136 38.5018C73.4754 38.648 73.6551 38.7345 73.8528 38.7615C74.0564 38.7687 74.2357 38.7306 74.3908 38.6473L74.5652 38.5536L74.6693 38.7474L70.7739 40.8403L70.6698 40.6465C70.6698 40.6465 70.7021 40.6291 70.7667 40.5944C70.8184 40.5666 70.8442 40.5527 70.8442 40.5527C71.1414 40.3931 71.3964 40.1395 71.6093 39.7921C71.8282 39.4247 71.923 38.9659 71.8937 38.4155L72.9984 37.822ZM70.4908 23.1608L71.3941 24.4237L73.2039 39.4598L72.0411 40.0845L70.6718 25.6359C70.6718 25.6359 70.6624 25.541 70.6438 25.3513C70.631 25.1417 70.6074 24.8963 70.5729 24.6151C70.5513 24.3271 70.5138 24.0558 70.4604 23.8015C70.4199 23.5402 70.3719 23.3579 70.3164 23.2545L70.4908 23.1608ZM77.8152 30.2393L78.1276 30.8207L72.0616 34.0797L71.7492 33.4983L77.8152 30.2393ZM80.7697 33.6467L82.3589 32.7929C82.7887 33.1281 83.2172 33.3058 83.6443 33.3261C84.0645 33.3334 84.4232 33.2572 84.7203 33.0976C84.7203 33.0976 84.7462 33.0837 84.7978 33.0559C84.8495 33.0282 84.8754 33.0143 84.8754 33.0143L84.9795 33.2081L80.619 35.5508L80.5149 35.357L80.6893 35.2633C80.9348 35.1314 81.0989 34.9101 81.1816 34.5992C81.2574 34.2755 81.1201 33.958 80.7697 33.6467Z" fill="#772B66"/>
<path d="M83.3041 19.9135L87.9877 32.2546L86.6713 32.7542L81.9877 20.4131L83.3041 19.9135ZM93.2786 29.5172L93.4795 30.1704L87.9465 32.2702L87.7045 31.6326L93.2786 29.5172ZM93.5562 26.7764L93.5412 30.147L90.4148 31.3335L90.8721 30.4305C91.5577 30.1703 92.0698 29.8661 92.4083 29.5181C92.7553 29.151 92.9941 28.7467 93.1245 28.305C93.2497 27.8496 93.3251 27.3661 93.3505 26.8544L93.5562 26.7764ZM86.2128 31.4222L86.9798 32.6371L85.1903 33.3162L85.1123 33.1106C85.1123 33.1106 85.1603 33.0923 85.2563 33.0559C85.3522 33.0195 85.4002 33.0013 85.4002 33.0013C85.743 32.8712 85.9825 32.6548 86.1187 32.3521C86.2548 32.0495 86.2725 31.7447 86.1717 31.4378L86.2128 31.4222ZM83.742 21.2533L83.2424 19.9369L84.7645 19.3592L84.8425 19.5649C84.8425 19.5649 84.8014 19.5805 84.7191 19.6118C84.6368 19.643 84.5957 19.6586 84.5957 19.6586C84.2666 19.7835 84.0203 20.0025 83.8567 20.3156C83.7017 20.6097 83.684 20.9145 83.8037 21.2299L83.742 21.2533ZM82.5284 21.7138L82.4873 21.7294C82.3539 21.4193 82.1316 21.2056 81.8204 21.0883C81.504 20.9574 81.1744 20.957 80.8316 21.0871C80.8316 21.0871 80.7905 21.1027 80.7082 21.1339C80.6259 21.1652 80.5848 21.1808 80.5848 21.1808L80.5068 20.9751L82.0288 20.3974L82.5284 21.7138Z" fill="#772B66"/>
<path d="M95.4326 15.8419L98.6913 28.6334L97.3269 28.981L94.0681 16.1895L95.4326 15.8419ZM104.258 26.5115L104.383 27.1832L98.6486 28.6442L98.4803 27.9833L104.258 26.5115ZM104.843 23.8196L104.447 27.1669L101.207 27.9925L101.763 27.1469C102.474 26.9659 103.017 26.7216 103.393 26.414C103.779 26.0885 104.062 25.7137 104.242 25.2896C104.417 24.8513 104.547 24.3794 104.63 23.8739L104.843 23.8196ZM97.0219 27.6057L97.6466 28.8995L95.7919 29.372L95.7376 29.1588C95.7376 29.1588 95.7873 29.1461 95.8868 29.1208C95.9863 29.0954 96.036 29.0828 96.036 29.0828C96.3914 28.9922 96.6538 28.8043 96.8232 28.519C96.9927 28.2336 97.0447 27.9328 96.9793 27.6165L97.0219 27.6057ZM95.7162 17.2226L95.3686 15.8582L96.9462 15.4563L97.0005 15.6695C97.0005 15.6695 96.9579 15.6804 96.8726 15.7021C96.7873 15.7238 96.7447 15.7347 96.7447 15.7347C96.4036 15.8216 96.1341 16.0113 95.9362 16.3039C95.7489 16.5786 95.6969 16.8794 95.7802 17.2063L95.7162 17.2226ZM94.4584 17.5431L94.4157 17.5539C94.3182 17.2307 94.1215 16.9932 93.8256 16.8416C93.5261 16.6757 93.1986 16.6381 92.8433 16.7286C92.8433 16.7286 92.8007 16.7394 92.7154 16.7612C92.6301 16.7829 92.5875 16.7938 92.5875 16.7938L92.5332 16.5806L94.1108 16.1787L94.4584 17.5431Z" fill="#772B66"/>
<path d="M117.224 14.8928L116.473 15.1392L115.219 13.2892L114.841 12.308L114.964 12.2081L115.871 12.6984L117.577 14.1751L117.224 14.8928ZM112.974 15.2872L112.497 14.6687L113.878 12.8834L114.679 12.2346L114.841 12.308L114.627 13.3441L113.757 15.3913L112.974 15.2872ZM111.264 11.3806L111.734 10.7403L113.837 11.4952L114.729 12.0532L114.679 12.2346L113.652 12.352L111.4 12.1412L111.264 11.3806ZM114.491 8.54015L115.242 8.77973L115.163 11.0187L114.904 12.037L114.729 12.0532L114.287 11.1L113.796 8.91393L114.491 8.54015ZM118.162 10.7182L118.169 11.5129L116.017 12.1324L114.964 12.2081L114.904 12.037L115.655 11.3265L117.581 10.1755L118.162 10.7182ZM114.88 12.0171L114.952 12.0767L114.984 12.1842L114.966 12.23L114.864 12.3278C114.849 12.3146 114.833 12.3086 114.819 12.31C114.804 12.3113 114.797 12.312 114.797 12.312L114.679 12.2346L114.675 12.1908L114.685 12.0573L114.748 12.0293L114.88 12.0171Z" fill="#772B66"/>
<path d="M137.889 10.2681L135.995 25.5512L134.576 25.3753L136.47 10.0922L137.889 10.2681ZM141.974 25.605L141.89 26.2818L135.93 25.5431L136.014 24.8662L141.974 25.605ZM141.925 18.3056L141.844 18.9606L136.823 18.3382L136.904 17.6832L141.925 18.3056ZM143.784 10.9988L143.7 11.6756L137.74 10.9368L137.824 10.26L143.784 10.9988ZM143.66 22.91L141.956 26.2899L138.331 25.8407L139.201 25.2613C139.973 25.357 140.613 25.3181 141.122 25.1447C141.648 24.9586 142.09 24.6662 142.45 24.2674C142.81 23.8686 143.14 23.4071 143.442 22.8829L143.66 22.91ZM141.85 18.9169L141.671 20.3579L141.453 20.3308L141.493 20.0034C141.529 19.7122 141.458 19.4522 141.28 19.2231C141.103 18.9796 140.869 18.8397 140.578 18.8036L140.583 18.76L141.85 18.9169ZM142.099 16.9083L141.92 18.3493L140.654 18.1923L140.659 18.1487C140.952 18.1702 141.213 18.0917 141.442 17.9132C141.673 17.7201 141.806 17.478 141.842 17.1869L141.88 16.8812L142.099 16.9083ZM143.709 11.6101L143.492 13.3567L143.274 13.3297L143.322 12.9367C143.366 12.5874 143.279 12.2736 143.062 11.9955C142.847 11.7029 142.559 11.5267 142.197 11.467L142.202 11.4234L143.709 11.6101ZM143.833 10.6058L143.755 11.2389L141.121 10.6686C141.441 10.7083 141.778 10.728 142.133 10.7276C142.502 10.729 142.843 10.7196 143.156 10.6993C143.469 10.6789 143.695 10.6478 143.833 10.6058ZM134.839 23.7896L134.641 25.3834L132.895 25.1669L132.922 24.9486C132.922 24.9486 132.966 24.954 133.053 24.9648C133.155 24.9775 133.206 24.9838 133.206 24.9838C133.584 25.0307 133.921 24.9394 134.215 24.7098C134.526 24.4676 134.712 24.1581 134.774 23.7815L134.839 23.7896ZM136.338 11.6942L136.273 11.686C136.32 11.3076 136.221 10.9702 135.977 10.674C135.735 10.3631 135.424 10.1843 135.046 10.1374C135.046 10.1374 135.002 10.132 134.915 10.1211C134.828 10.1103 134.784 10.1049 134.784 10.1049L134.789 9.88386L136.536 10.1004L136.338 11.6942Z" fill="#772B66"/>
<path d="M150.054 14.4468L155.696 29.4604L153.969 29.0205L148.37 14.0177L150.054 14.4468ZM147.361 25.9068C147.108 26.1298 147.041 26.3927 147.16 26.6956C147.298 26.9879 147.501 27.1685 147.772 27.2373C147.772 27.2373 147.814 27.2481 147.899 27.2698C147.985 27.2916 148.027 27.3024 148.027 27.3024L147.973 27.5156L143.325 26.3316L143.38 26.1184L143.657 26.189C144.083 26.2977 144.501 26.2906 144.911 26.168C145.324 26.0311 145.681 25.8495 145.981 25.6232L147.361 25.9068ZM151.57 21.3261L151.774 22.3088L146.017 26.9946L144.674 26.6525L151.57 21.3261ZM153.389 27.4652L155.121 27.9745C155.265 28.2988 155.493 28.6218 155.805 28.9433C156.12 29.2506 156.491 29.4586 156.917 29.5672L157.195 29.6379L157.14 29.851L152.088 28.5638L152.142 28.3507C152.142 28.3507 152.185 28.3615 152.27 28.3832C152.355 28.405 152.398 28.4158 152.398 28.4158C152.682 28.4882 152.94 28.4254 153.172 28.2272C153.422 28.0185 153.495 27.7644 153.389 27.4652ZM151.935 14.9034L151.881 15.1166C151.881 15.1166 151.838 15.1058 151.753 15.084C151.668 15.0623 151.625 15.0514 151.625 15.0514C151.355 14.9826 151.095 15.0526 150.845 15.2614C150.599 15.4559 150.528 15.7028 150.634 16.0021L148.945 15.5037C148.804 15.1651 148.576 14.8422 148.261 14.5348C147.945 14.2275 147.575 14.0195 147.148 13.9109L146.871 13.8403L146.925 13.6271L151.935 14.9034ZM158.603 16.6247L152.454 21.7783L152.149 20.7471L157.153 16.2554L158.603 16.6247ZM160.037 16.9673L159.982 17.1805L159.684 17.1044C159.257 16.9958 158.832 17.001 158.408 17.1201C157.999 17.2427 157.649 17.4262 157.36 17.6703L155.915 17.3704C156.155 17.1438 156.213 16.8861 156.09 16.5975C155.984 16.2982 155.789 16.1123 155.505 16.0399C155.505 16.0399 155.463 16.0291 155.377 16.0073C155.292 15.9856 155.249 15.9747 155.249 15.9747L155.304 15.7616L160.037 16.9673Z" fill="#772B66"/>
<path d="M165.36 18.9853L167.63 19.8859C168.584 20.2645 169.352 20.7349 169.934 21.297C170.521 21.8455 170.9 22.4613 171.07 23.1445C171.247 23.814 171.191 24.51 170.905 25.2325C170.596 26.0096 170.154 26.6073 169.578 27.0256C169.021 27.4357 168.396 27.6771 167.705 27.7499C167.019 27.809 166.328 27.7006 165.633 27.4248C164.943 27.1353 164.318 26.6822 163.758 26.0655L163.839 25.861C163.839 25.861 163.94 25.9247 164.142 26.0522C164.357 26.185 164.642 26.3218 164.997 26.4624C165.356 26.5894 165.756 26.6768 166.194 26.7246C166.638 26.7588 167.093 26.6867 167.558 26.5083C168.037 26.3354 168.495 25.9964 168.932 25.4913C169.046 25.363 169.151 25.1993 169.245 25.0002C169.354 24.8066 169.443 24.6211 169.513 24.4439C169.843 23.6123 169.817 22.8443 169.433 22.14C169.05 21.4357 168.354 20.8834 167.345 20.4831L165.341 19.688C165.341 19.688 165.34 19.6322 165.337 19.5205C165.353 19.4006 165.359 19.2849 165.356 19.1732C165.359 19.0479 165.36 18.9853 165.36 18.9853ZM165.626 19.0907L160.757 31.3603L159.449 30.841L164.317 18.5715L165.626 19.0907ZM160.009 29.5485L159.755 30.9627L157.976 30.2569L158.058 30.0524C158.058 30.0524 158.105 30.0713 158.201 30.1092C158.296 30.147 158.344 30.166 158.344 30.166C158.671 30.2958 158.987 30.2949 159.292 30.1633C159.61 30.0371 159.835 29.8268 159.968 29.5323L160.009 29.5485ZM163.847 19.876L163.806 19.8598C163.916 19.5408 163.896 19.2331 163.746 18.9367C163.609 18.6456 163.377 18.4352 163.05 18.3054C163.05 18.3054 163.002 18.2865 162.906 18.2486C162.811 18.2107 162.763 18.1918 162.763 18.1918L162.844 17.9873L164.624 18.6932L163.847 19.876ZM161.215 30.0272L161.256 30.0434C161.151 30.3488 161.164 30.6538 161.296 30.9584C161.441 31.2685 161.677 31.4885 162.004 31.6183C162.018 31.6237 162.066 31.6426 162.147 31.6751C162.243 31.7129 162.291 31.7319 162.291 31.7319L162.209 31.9364L160.43 31.2305L161.215 30.0272Z" fill="#772B66"/>
<path d="M177.539 24.3837L171.292 36.0117L170.052 35.3453L176.299 23.7173L177.539 24.3837ZM176.828 38.2118L176.466 38.7918L171.253 35.9909L171.576 35.3901L176.828 38.2118ZM179.079 36.6243L176.524 38.823L173.579 37.2403L174.56 36.9936C175.206 37.3406 175.772 37.5279 176.257 37.5552C176.761 37.5766 177.223 37.4917 177.642 37.3006C178.068 37.0966 178.483 36.8365 178.886 36.5202L179.079 36.6243ZM170.757 34.1258L170.342 35.5015L168.656 34.5956L168.76 34.4018C168.76 34.4018 168.806 34.4261 168.896 34.4747C168.986 34.5233 169.032 34.5476 169.032 34.5476C169.355 34.7211 169.675 34.7601 169.993 34.6644C170.311 34.5688 170.552 34.3823 170.718 34.105L170.757 34.1258ZM176.815 25.5928L177.481 24.3524L178.915 25.1229L178.811 25.3167C178.811 25.3167 178.772 25.2959 178.695 25.2543C178.617 25.2126 178.579 25.1918 178.579 25.1918C178.268 25.0252 177.942 24.9828 177.598 25.0646C177.274 25.1404 177.032 25.3268 176.873 25.624L176.815 25.5928ZM175.671 24.9784L175.632 24.9576C175.779 24.6535 175.795 24.3456 175.679 24.0337C175.571 23.709 175.355 23.4599 175.032 23.2864C175.032 23.2864 174.993 23.2655 174.916 23.2239C174.838 23.1822 174.799 23.1614 174.799 23.1614L174.904 22.9676L176.338 23.7381L175.671 24.9784Z" fill="#772B66"/>
<path d="M192.623 33.3509C193.451 33.9578 194.126 34.6618 194.648 35.4628C195.191 36.2606 195.552 37.1074 195.732 38.0031C195.924 38.9074 195.922 39.8154 195.727 40.7269C195.54 41.6266 195.143 42.4905 194.536 43.3185C193.929 44.1465 193.221 44.7909 192.41 45.2515C191.608 45.7003 190.748 45.9694 189.827 46.0586C188.919 46.1566 187.998 46.0728 187.066 45.8073C186.153 45.5386 185.283 45.1008 184.455 44.4938C183.627 43.8868 182.948 43.1888 182.417 42.3996C181.895 41.5986 181.538 40.746 181.346 39.8416C181.166 38.9459 181.169 38.0482 181.356 37.1485C181.551 36.237 181.953 35.3672 182.56 34.5392C183.166 33.7112 183.871 33.0727 184.673 32.6239C185.483 32.1633 186.343 31.884 187.251 31.786C188.171 31.6967 189.087 31.7864 190 32.0551C190.921 32.312 191.795 32.7439 192.623 33.3509ZM184.845 43.9615C185.721 44.6032 186.669 44.9712 187.691 45.0656C188.713 45.16 189.708 44.9804 190.677 44.5268C191.646 44.0733 192.495 43.3497 193.223 42.356C193.96 41.3505 194.395 40.3235 194.527 39.2747C194.668 38.2142 194.54 37.2109 194.142 36.2648C193.745 35.3187 193.108 34.5248 192.233 33.8832C191.369 33.2502 190.427 32.8865 189.405 32.7921C188.383 32.6977 187.387 32.8773 186.419 33.3308C185.458 33.7726 184.61 34.4962 183.873 35.5017C183.144 36.4953 182.71 37.5224 182.569 38.5829C182.428 39.6435 182.556 40.6468 182.954 41.5929C183.351 42.539 183.982 43.3285 184.845 43.9615Z" fill="#772B66"/>
<path d="M203.343 42.5714L205.357 44.5708C205.846 45.0565 206.226 45.5477 206.498 46.0445C206.78 46.5517 206.947 47.0489 207.001 47.5361C207.065 48.0337 207.015 48.511 206.851 48.9679C206.686 49.4248 206.408 49.851 206.015 50.2465C205.581 50.6837 205.074 50.9863 204.494 51.1543C203.914 51.3224 203.318 51.3401 202.705 51.2075C202.103 51.0852 201.542 50.8176 201.022 50.4047C201.127 50.6532 201.17 51.016 201.151 51.4932C201.142 51.9806 201.102 52.4267 201.031 52.8315C201.031 52.8315 201.006 52.9923 200.955 53.314C200.915 53.6253 200.864 54.0195 200.804 54.4968C200.764 54.974 200.729 55.4357 200.7 55.8817C200.681 56.3381 200.672 56.7426 200.673 57.0952C200.685 57.4582 200.743 57.795 200.848 58.1058C200.974 58.4164 201.177 58.7113 201.458 58.9903L201.303 59.1464L200.819 58.6659C200.246 58.0976 199.845 57.5546 199.615 57.0368C199.395 56.5295 199.274 56.058 199.252 55.6225C199.24 55.1766 199.249 54.7721 199.279 54.409C199.289 54.3157 199.319 54.0874 199.37 53.7242C199.441 53.361 199.512 52.9666 199.583 52.5412C199.654 52.1157 199.715 51.7317 199.766 51.3893C199.827 51.0365 199.862 50.8237 199.872 50.7511C199.933 50.2738 199.931 49.7968 199.867 49.3199C199.813 48.8327 199.636 48.4392 199.334 48.1396L199.489 47.9835C199.489 47.9835 199.567 48.0713 199.723 48.2471C199.89 48.4124 200.108 48.619 200.379 48.8669C200.681 49.1459 200.993 49.4144 201.315 49.6725C201.648 49.9202 202.032 50.0743 202.468 50.135C202.914 50.206 203.427 50.0952 204.007 49.8027C204.162 49.7295 204.328 49.6252 204.504 49.4898C204.679 49.3543 204.845 49.1981 205 49.0213C205.279 48.7195 205.48 48.4025 205.603 48.0701C205.737 47.7481 205.792 47.4109 205.77 47.0584C205.759 46.7162 205.674 46.3742 205.518 46.0325C205.361 45.6909 205.132 45.3598 204.83 45.0394C204.361 44.533 203.939 44.1041 203.565 43.7528C203.19 43.4016 203.008 43.2208 203.018 43.2104C203.029 43.1999 203.054 43.1428 203.096 43.039C203.157 42.935 203.209 42.8311 203.25 42.7273C203.312 42.6233 203.343 42.5714 203.343 42.5714ZM203.53 42.7574L194.23 52.125L193.231 51.133L202.531 41.7654L203.53 42.7574ZM194.27 50.1803L193.465 51.3655L192.138 50.0481L192.293 49.8919C192.293 49.8919 192.33 49.9281 192.402 50.0004C192.475 50.0728 192.512 50.1089 192.512 50.1089C192.762 50.3569 193.052 50.4803 193.384 50.4791C193.716 50.4779 194.001 50.368 194.239 50.1493L194.27 50.1803ZM201.601 42.7955L201.57 42.7645C201.797 42.5148 201.905 42.2292 201.894 41.9077C201.882 41.5862 201.751 41.3015 201.502 41.0535C201.502 41.0535 201.465 41.0174 201.392 40.945C201.319 40.8727 201.283 40.8365 201.283 40.8365L201.438 40.6804L202.765 41.9979L201.601 42.7955ZM195.175 51.0793L195.222 51.1258C195.005 51.3651 194.897 51.6507 194.899 51.9826C194.9 52.3144 195.025 52.6044 195.275 52.8524C195.275 52.8524 195.306 52.8834 195.369 52.9454C195.442 53.0177 195.478 53.0539 195.478 53.0539L195.339 53.2255L193.996 51.8925L195.175 51.0793Z" fill="#772B66"/>
<path d="M214.127 54.2457L203.713 62.3568L202.848 61.246L213.262 53.1348L214.127 54.2457ZM207.887 66.6067L207.322 66.991L203.686 62.3221L204.224 61.9031L207.887 66.6067ZM212.181 61.9516L211.661 62.3572L208.632 58.4693L209.153 58.0638L212.181 61.9516ZM217.75 58.8972L217.212 59.3163L213.562 54.63L214.1 54.2109L217.75 58.8972ZM210.588 66.0645L207.363 67.0431L205.308 64.4049L206.306 64.5759C206.756 65.1545 207.198 65.5542 207.63 65.7752C208.083 65.9987 208.54 66.1077 209 66.1023C209.472 66.0878 209.957 66.0174 210.453 65.891L210.588 66.0645ZM211.695 62.3301L210.706 63.1007L210.557 62.9098L210.783 62.734C210.98 62.5808 211.102 62.3923 211.151 62.1684C211.211 61.9356 211.147 61.6976 210.958 61.4546L210.992 61.4276L211.695 62.3301ZM213.136 61.2081L212.147 61.9786L211.444 61.0761L211.478 61.0491C211.668 61.2921 211.877 61.4173 212.106 61.4249C212.346 61.4234 212.565 61.3461 212.762 61.1929L212.987 61.0172L213.136 61.2081ZM217.264 59.2757L216.066 60.2085L215.917 60.0176L216.178 59.8148C216.421 59.6255 216.566 59.3823 216.613 59.0851C216.67 58.7995 216.594 58.5237 216.387 58.2575L216.439 58.217L217.264 59.2757ZM218.027 58.6809L217.576 59.0324L216.209 56.9186C216.488 57.2773 216.814 57.6366 217.188 57.9965C217.572 58.3474 217.852 58.5755 218.027 58.6809ZM203.986 60.4156L203.05 61.5064L201.874 59.9964L202.048 59.8612C202.048 59.8612 202.079 59.9017 202.143 59.9827C202.206 60.0637 202.237 60.1042 202.237 60.1042C202.462 60.3934 202.74 60.5585 203.069 60.5995C203.398 60.6404 203.695 60.5675 203.958 60.3808L203.986 60.4156ZM212.195 54.0212L212.168 53.9865C212.425 53.7677 212.568 53.4981 212.598 53.1778C212.627 52.8574 212.529 52.5526 212.304 52.2634C212.304 52.2634 212.272 52.2229 212.209 52.1419C212.146 52.0609 212.115 52.0204 212.115 52.0204L212.288 51.8852L213.464 53.3952L212.195 54.0212Z" fill="#772B66"/>
<path d="M229.146 72.8778L218.218 85.7468L217.37 84.0802L227.084 73.4338L229.146 72.8778ZM214.433 75.0593C214.125 75.1009 213.896 75.2009 213.746 75.3594C213.596 75.5179 213.506 75.6956 213.474 75.8926C213.463 76.096 213.497 76.2762 213.577 76.433L213.666 76.6095L213.47 76.7093L211.464 72.7684L211.66 72.6686C211.66 72.6686 211.677 72.7013 211.71 72.7666C211.737 72.8189 211.75 72.8451 211.75 72.8451C211.903 73.1457 212.151 73.4063 212.494 73.6269C212.856 73.8538 213.313 73.9588 213.864 73.9417L214.433 75.0593ZM229.146 72.8778L227.863 73.7529L212.791 75.2285L212.192 74.0521L226.667 73.0038C226.667 73.0038 226.762 72.9966 226.952 72.9821C227.162 72.974 227.408 72.9559 227.69 72.9276C227.978 72.9124 228.25 72.881 228.506 72.8332C228.768 72.7986 228.951 72.7546 229.056 72.7014L229.146 72.8778ZM221.906 80.0433L221.318 80.3427L218.195 74.2059L218.783 73.9065L221.906 80.0433ZM218.434 82.9215L219.253 84.5292C218.908 84.9514 218.721 85.3759 218.691 85.8024C218.674 86.2223 218.743 86.5826 218.896 86.8832C218.896 86.8832 218.909 86.9094 218.935 86.9617C218.962 87.014 218.975 87.0401 218.975 87.0401L218.779 87.1399L216.534 82.7285L216.73 82.6287L216.82 82.8051C216.946 83.0535 217.164 83.2224 217.473 83.3121C217.795 83.395 218.115 83.2648 218.434 82.9215Z" fill="#772B66"/>
<path d="M232.142 85.9032L219.698 90.3076L219.229 88.9802L231.672 84.5759L232.142 85.9032ZM222.316 95.6589L221.658 95.8449L219.684 90.2661L220.327 90.0385L222.316 95.6589ZM225.05 95.9981L221.68 95.9072L220.565 92.7548L221.457 93.2324C221.702 93.9237 221.994 94.4425 222.335 94.7887C222.694 95.1439 223.093 95.3917 223.531 95.5321C223.984 95.6675 224.466 95.7538 224.976 95.7907L225.05 95.9981ZM220.571 88.5519L219.339 89.2913L218.7 87.487L218.908 87.4136C218.908 87.4136 218.925 87.462 218.959 87.5588C218.993 87.6556 219.01 87.704 219.01 87.704C219.133 88.0496 219.344 88.2939 219.643 88.4368C219.943 88.5797 220.247 88.6043 220.556 88.5104L220.571 88.5519ZM230.793 86.3108L232.12 85.841L232.663 87.3757L232.456 87.4491C232.456 87.4491 232.441 87.4077 232.412 87.3247C232.382 87.2417 232.368 87.2003 232.368 87.2003C232.25 86.8684 232.037 86.6172 231.728 86.4467C231.437 86.285 231.133 86.2605 230.815 86.373L230.793 86.3108ZM230.36 85.0872L230.345 85.0457C230.658 84.9193 230.877 84.7019 231.001 84.3935C231.139 84.0801 231.147 83.7506 231.024 83.405C231.024 83.405 231.01 83.3635 230.98 83.2805C230.951 83.1976 230.936 83.1561 230.936 83.1561L231.144 83.0827L231.687 84.6174L230.36 85.0872Z" fill="#772B66"/>
<path d="M235.929 98.1891L223.066 101.155L222.75 99.7831L235.613 96.8171L235.929 98.1891ZM225.061 106.768L224.386 106.879L223.057 101.112L223.721 100.959L225.061 106.768ZM227.739 107.415L224.401 106.943L223.65 103.685L224.482 104.26C224.647 104.975 224.879 105.523 225.178 105.906C225.494 106.3 225.863 106.591 226.283 106.78C226.717 106.966 227.186 107.106 227.689 107.201L227.739 107.415ZM224.132 99.5096L222.824 100.105L222.394 98.2396L222.609 98.1901C222.609 98.1901 222.62 98.2402 222.643 98.3402C222.666 98.4402 222.678 98.4903 222.678 98.4903C222.76 98.8476 222.942 99.1142 223.223 99.2901C223.505 99.466 223.804 99.5249 224.122 99.4667L224.132 99.5096ZM234.542 98.4412L235.914 98.1248L236.28 99.7112L236.065 99.7606C236.065 99.7606 236.056 99.7177 236.036 99.632C236.016 99.5462 236.006 99.5034 236.006 99.5034C235.927 99.1604 235.744 98.8866 235.456 98.6821C235.185 98.4885 234.886 98.4297 234.557 98.5055L234.542 98.4412ZM234.25 97.1764L234.241 97.1335C234.566 97.0434 234.808 96.8522 234.966 96.5598C235.139 96.2641 235.184 95.9376 235.102 95.5803C235.102 95.5803 235.092 95.5374 235.072 95.4517C235.052 95.3659 235.042 95.3231 235.042 95.3231L235.257 95.2736L235.622 96.86L234.25 97.1764Z" fill="#772B66"/>
<path d="M236.31 119.428L236.078 118.673L237.952 117.454L238.94 117.095L239.037 117.22L238.53 118.118L237.02 119.795L236.31 119.428ZM235.997 115.171L236.625 114.706L238.383 116.121L239.016 116.935L238.94 117.095L237.908 116.862L235.878 115.952L235.997 115.171ZM239.936 113.537L240.567 114.02L239.772 116.108L239.197 116.988L239.016 116.935L238.919 115.905L239.173 113.659L239.936 113.537ZM242.714 116.818L242.46 117.565L240.223 117.442L239.21 117.164L239.197 116.988L240.158 116.564L242.353 116.117L242.714 116.818ZM240.465 120.446L239.671 120.439L239.093 118.275L239.037 117.22L239.21 117.164L239.906 117.929L241.019 119.876L240.465 120.446ZM239.23 117.14L239.169 117.211L239.061 117.241L239.015 117.222L238.92 117.119C238.933 117.103 238.939 117.088 238.938 117.073C238.937 117.059 238.937 117.051 238.937 117.051L239.016 116.935L239.06 116.932L239.194 116.944L239.22 117.008L239.23 117.14Z" fill="#772B66"/>
</svg>
