<svg width="126" height="126" viewBox="0 0 126 126" fill="none" xmlns="http://www.w3.org/2000/svg">
<circle cx="63" cy="63" r="62" fill="url(#paint0_radial_260_39)" stroke="#B9DFEC" stroke-width="0.1"/>
<path d="M43.232 56.8V68H42.192V56.8H43.232ZM47.552 67.504V68H43.184V67.504H47.552ZM48.528 65.408L47.6 68H44.944L45.52 67.504C46.0853 67.504 46.544 67.4187 46.896 67.248C47.2587 67.0667 47.552 66.816 47.776 66.496C48 66.176 48.1973 65.8133 48.368 65.408H48.528ZM42.24 66.832V68H40.96V67.84C40.96 67.84 40.992 67.84 41.056 67.84C41.1307 67.84 41.168 67.84 41.168 67.84C41.4453 67.84 41.68 67.744 41.872 67.552C42.0747 67.3493 42.1813 67.1093 42.192 66.832H42.24ZM42.24 57.968H42.192C42.1813 57.6907 42.0747 57.456 41.872 57.264C41.68 57.0613 41.4453 56.96 41.168 56.96C41.168 56.96 41.1307 56.96 41.056 56.96C40.992 56.96 40.96 56.96 40.96 56.96V56.8H42.24V57.968ZM43.184 57.968V56.8H44.464V56.96C44.4533 56.96 44.416 56.96 44.352 56.96C44.288 56.96 44.256 56.96 44.256 56.96C43.9787 56.96 43.7387 57.0613 43.536 57.264C43.344 57.456 43.2427 57.6907 43.232 57.968H43.184ZM51.6564 58.4V64.448C51.6564 65.4827 51.9177 66.2987 52.4404 66.896C52.9737 67.4933 53.699 67.792 54.6164 67.792C55.6297 67.792 56.4244 67.5093 57.0004 66.944C57.587 66.3787 57.8804 65.6053 57.8804 64.624V58.4H58.6164V64.624C58.6164 65.7333 58.259 66.6133 57.5444 67.264C56.8404 67.904 55.8697 68.224 54.6324 68.224C53.4057 68.224 52.4297 67.904 51.7044 67.264C50.9897 66.624 50.6324 65.7493 50.6324 64.64V58.4H51.6564ZM50.6644 58.4V59.248H50.6324C50.6217 59.056 50.5417 58.896 50.3924 58.768C50.2537 58.6293 50.0777 58.56 49.8644 58.56C49.8644 58.56 49.8217 58.56 49.7364 58.56C49.6617 58.56 49.6244 58.56 49.6244 58.56V58.4H50.6644ZM52.6644 58.4V58.56C52.6644 58.56 52.6217 58.56 52.5364 58.56C52.4617 58.56 52.4244 58.56 52.4244 58.56C52.2217 58.56 52.0404 58.6293 51.8804 58.768C51.731 58.896 51.6564 59.056 51.6564 59.248H51.6244V58.4H52.6644ZM57.9124 58.4V59.248H57.8804C57.8804 59.056 57.8057 58.896 57.6564 58.768C57.507 58.6293 57.3257 58.56 57.1124 58.56C57.1124 58.56 57.0697 58.56 56.9844 58.56C56.9097 58.56 56.8724 58.56 56.8724 58.56V58.4H57.9124ZM59.6244 58.4V58.56C59.6244 58.56 59.5817 58.56 59.4964 58.56C59.4217 58.56 59.3844 58.56 59.3844 58.56C59.1817 58.56 59.0057 58.6293 58.8564 58.768C58.707 58.896 58.627 59.056 58.6164 59.248H58.5844V58.4H59.6244ZM62.6195 58.416L69.2915 67.984H67.9955L61.3555 58.416H62.6195ZM62.7795 66.976C62.6408 67.1787 62.6408 67.376 62.7795 67.568C62.9288 67.7493 63.1048 67.84 63.3075 67.84C63.3075 67.84 63.3395 67.84 63.4035 67.84C63.4675 67.84 63.4995 67.84 63.4995 67.84V68H60.0115V67.84H60.2195C60.5395 67.84 60.8328 67.76 61.0995 67.6C61.3662 67.4293 61.5848 67.2373 61.7555 67.024L62.7795 66.976ZM64.9235 62.992L65.2435 63.648L62.0275 67.984H61.0195L64.9235 62.992ZM67.3075 66.992L68.6195 67.04C68.7795 67.2427 68.9982 67.4293 69.2755 67.6C69.5528 67.76 69.8515 67.84 70.1715 67.84H70.3795V68H66.5875V67.84C66.5875 67.84 66.6195 67.84 66.6835 67.84C66.7475 67.84 66.7795 67.84 66.7795 67.84C66.9928 67.84 67.1635 67.7493 67.2915 67.568C67.4302 67.376 67.4355 67.184 67.3075 66.992ZM64.0275 58.4V58.56C64.0275 58.56 63.9955 58.56 63.9315 58.56C63.8675 58.56 63.8355 58.56 63.8355 58.56C63.6328 58.56 63.4622 58.656 63.3235 58.848C63.1848 59.0293 63.1795 59.216 63.3075 59.408L62.0275 59.36C61.8675 59.1467 61.6488 58.96 61.3715 58.8C61.0942 58.64 60.7955 58.56 60.4755 58.56H60.2675V58.4H64.0275ZM69.0355 58.416L65.6275 63.152L65.2275 62.48L67.9475 58.416H69.0355ZM70.1075 58.4V58.56H69.8835C69.5635 58.56 69.2648 58.64 68.9875 58.8C68.7208 58.96 68.5075 59.152 68.3475 59.376L67.2755 59.424C67.4035 59.2213 67.3982 59.0293 67.2595 58.848C67.1315 58.656 66.9608 58.56 66.7475 58.56C66.7475 58.56 66.7155 58.56 66.6515 58.56C66.5875 58.56 66.5555 58.56 66.5555 58.56V58.4H70.1075ZM72.8751 58.4V64.448C72.8751 65.4827 73.1365 66.2987 73.6591 66.896C74.1925 67.4933 74.9178 67.792 75.8351 67.792C76.8485 67.792 77.6431 67.5093 78.2191 66.944C78.8058 66.3787 79.0991 65.6053 79.0991 64.624V58.4H79.8351V64.624C79.8351 65.7333 79.4778 66.6133 78.7631 67.264C78.0591 67.904 77.0885 68.224 75.8511 68.224C74.6245 68.224 73.6485 67.904 72.9231 67.264C72.2085 66.624 71.8511 65.7493 71.8511 64.64V58.4H72.8751ZM71.8831 58.4V59.248H71.8511C71.8405 59.056 71.7605 58.896 71.6111 58.768C71.4725 58.6293 71.2965 58.56 71.0831 58.56C71.0831 58.56 71.0405 58.56 70.9551 58.56C70.8805 58.56 70.8431 58.56 70.8431 58.56V58.4H71.8831ZM73.8831 58.4V58.56C73.8831 58.56 73.8405 58.56 73.7551 58.56C73.6805 58.56 73.6431 58.56 73.6431 58.56C73.4405 58.56 73.2591 58.6293 73.0991 58.768C72.9498 58.896 72.8751 59.056 72.8751 59.248H72.8431V58.4H73.8831ZM79.1311 58.4V59.248H79.0991C79.0991 59.056 79.0245 58.896 78.8751 58.768C78.7258 58.6293 78.5445 58.56 78.3311 58.56C78.3311 58.56 78.2885 58.56 78.2031 58.56C78.1285 58.56 78.0911 58.56 78.0911 58.56V58.4H79.1311ZM80.8431 58.4V58.56C80.8431 58.56 80.8005 58.56 80.7151 58.56C80.6405 58.56 80.6031 58.56 80.6031 58.56C80.4005 58.56 80.2245 58.6293 80.0751 58.768C79.9258 58.896 79.8458 59.056 79.8351 59.248H79.8031V58.4H80.8431ZM84.2383 58.4H86.3023C86.8036 58.4 87.2516 58.4587 87.6463 58.576C88.0516 58.6933 88.3929 58.864 88.6703 59.088C88.9583 59.312 89.1769 59.584 89.3263 59.904C89.4756 60.224 89.5503 60.5867 89.5503 60.992C89.5503 61.44 89.4436 61.856 89.2303 62.24C89.0169 62.624 88.7183 62.9387 88.3343 63.184C87.9609 63.4293 87.5343 63.5787 87.0543 63.632C87.2356 63.7067 87.4436 63.872 87.6783 64.128C87.9236 64.384 88.1316 64.6347 88.3023 64.88C88.3023 64.88 88.3716 64.976 88.5103 65.168C88.6489 65.3493 88.8249 65.5787 89.0383 65.856C89.2623 66.1227 89.4809 66.3787 89.6943 66.624C89.9183 66.8693 90.1209 67.0827 90.3023 67.264C90.4943 67.4453 90.6969 67.5893 90.9103 67.696C91.1343 67.792 91.3903 67.84 91.6783 67.84V68H91.1823C90.5956 68 90.1103 67.9253 89.7263 67.776C89.3529 67.6267 89.0489 67.4453 88.8143 67.232C88.5796 67.008 88.3769 66.7947 88.2063 66.592C88.1636 66.5387 88.0623 66.4053 87.9023 66.192C87.7529 65.968 87.5876 65.728 87.4063 65.472C87.2249 65.216 87.0596 64.9867 86.9103 64.784C86.7609 64.5707 86.6703 64.4427 86.6383 64.4C86.4249 64.1227 86.1796 63.8773 85.9023 63.664C85.6249 63.44 85.3316 63.328 85.0223 63.328V63.168C85.0223 63.168 85.1076 63.1733 85.2783 63.184C85.4489 63.184 85.6676 63.1787 85.9343 63.168C86.2329 63.1573 86.5316 63.136 86.8303 63.104C87.1289 63.0613 87.4063 62.944 87.6623 62.752C87.9289 62.56 88.1369 62.24 88.2863 61.792C88.3289 61.6747 88.3609 61.536 88.3823 61.376C88.4036 61.216 88.4089 61.0507 88.3983 60.88C88.3876 60.5813 88.3289 60.3147 88.2223 60.08C88.1263 59.8453 87.9823 59.6427 87.7903 59.472C87.6089 59.3013 87.3903 59.168 87.1343 59.072C86.8783 58.976 86.5903 58.9227 86.2703 58.912C85.7689 58.8907 85.3316 58.8853 84.9583 58.896C84.5849 58.9067 84.3983 58.9067 84.3983 58.896C84.3983 58.8853 84.3823 58.8427 84.3503 58.768C84.3289 58.6827 84.3023 58.6027 84.2703 58.528C84.2489 58.4427 84.2383 58.4 84.2383 58.4ZM84.4303 58.4V68H83.4062V58.4H84.4303ZM83.4543 66.976L83.6463 68H82.2863V67.84C82.2863 67.84 82.3236 67.84 82.3983 67.84C82.4729 67.84 82.5103 67.84 82.5103 67.84C82.7663 67.84 82.9796 67.7547 83.1503 67.584C83.3209 67.4133 83.4116 67.2107 83.4223 66.976H83.4543ZM83.4543 59.408H83.4223C83.4116 59.1627 83.3209 58.96 83.1503 58.8C82.9796 58.64 82.7663 58.56 82.5103 58.56C82.5103 58.56 82.4729 58.56 82.3983 58.56C82.3236 58.56 82.2863 58.56 82.2863 58.56V58.4H83.6463L83.4543 59.408ZM84.3823 66.976H84.4303C84.4409 67.2107 84.5316 67.4133 84.7023 67.584C84.8729 67.7547 85.0863 67.84 85.3423 67.84C85.3423 67.84 85.3743 67.84 85.4383 67.84C85.5129 67.84 85.5503 67.84 85.5503 67.84L85.5663 68H84.1903L84.3823 66.976ZM93.1028 58.416L96.0628 63.68L95.4068 64.24L91.7108 58.416H93.1028ZM96.3028 63.872V68H95.2628V63.872H96.3028ZM98.9908 58.416H99.9988L96.1908 64.208L95.5988 64.032L98.9908 58.416ZM98.3828 59.424C98.5001 59.2107 98.5054 59.0133 98.3988 58.832C98.2921 58.6507 98.1214 58.56 97.8868 58.56C97.8868 58.56 97.8548 58.56 97.7908 58.56C97.7268 58.56 97.6948 58.56 97.6948 58.56V58.4H101.039V58.56H100.847C100.548 58.56 100.265 58.6453 99.9988 58.816C99.7428 58.976 99.5401 59.1627 99.3908 59.376L98.3828 59.424ZM93.6628 59.408L92.3028 59.36C92.1321 59.1147 91.9188 58.9227 91.6628 58.784C91.4174 58.6347 91.1401 58.56 90.8308 58.56H90.6387V58.4H94.3508V58.56C94.3508 58.56 94.3188 58.56 94.2548 58.56C94.1908 58.56 94.1588 58.56 94.1588 58.56C93.9241 58.56 93.7534 58.656 93.6468 58.848C93.5508 59.0293 93.5561 59.216 93.6628 59.408ZM95.3108 66.976V68H94.1428V67.84C94.1534 67.84 94.1854 67.84 94.2388 67.84C94.3028 67.84 94.3348 67.84 94.3348 67.84C94.5908 67.84 94.8041 67.7547 94.9748 67.584C95.1561 67.4133 95.2521 67.2107 95.2628 66.976H95.3108ZM96.2548 66.976H96.3028C96.3134 67.2107 96.4041 67.4133 96.5748 67.584C96.7561 67.7547 96.9748 67.84 97.2308 67.84C97.2308 67.84 97.2628 67.84 97.3268 67.84C97.3908 67.84 97.4228 67.84 97.4228 67.84V68H96.2548V66.976Z" fill="black"/>
<defs>
<radialGradient id="paint0_radial_260_39" cx="0" cy="0" r="1" gradientUnits="userSpaceOnUse" gradientTransform="translate(63 63) rotate(90) scale(71.5)">
<stop stop-color="#D657BA"/>
<stop offset="1" stop-color="#FFDDE5" stop-opacity="0.45"/>
</radialGradient>
</defs>
</svg>
