<svg width="124" height="124" viewBox="0 0 124 124" fill="none" xmlns="http://www.w3.org/2000/svg">
<circle cx="62" cy="62" r="62" fill="#FFDDE5"/>
<path d="M33.016 56.576C33.1867 56.576 33.368 56.5867 33.56 56.608C33.7627 56.6293 33.9547 56.6613 34.136 56.704C34.328 56.736 34.4987 56.7733 34.648 56.816C34.808 56.848 34.9307 56.8853 35.016 56.928V58.704H34.872C34.872 58.192 34.696 57.792 34.344 57.504C33.992 57.2053 33.5653 57.056 33.064 57.056C32.4773 57.056 32.0027 57.2427 31.64 57.616C31.2773 57.9787 31.096 58.4053 31.096 58.896C31.096 59.0987 31.1387 59.3387 31.224 59.616C31.32 59.8827 31.4907 60.1333 31.736 60.368L34.888 63.28C35.208 63.5787 35.4213 63.8987 35.528 64.24C35.6347 64.5813 35.688 64.912 35.688 65.232C35.688 66.1173 35.416 66.8373 34.872 67.392C34.3387 67.9467 33.6133 68.224 32.696 68.224C32.44 68.224 32.136 68.1973 31.784 68.144C31.4427 68.0907 31.1067 68 30.776 67.872C30.456 67.7333 30.1893 67.5573 29.976 67.344C29.944 67.1733 29.928 66.96 29.928 66.704C29.928 66.448 29.9493 66.1813 29.992 65.904C30.0347 65.616 30.0933 65.3547 30.168 65.12H30.312C30.2587 65.664 30.328 66.1387 30.52 66.544C30.712 66.9493 30.9893 67.2587 31.352 67.472C31.7253 67.6747 32.1467 67.7653 32.616 67.744C33.2027 67.712 33.704 67.5093 34.12 67.136C34.5467 66.752 34.76 66.24 34.76 65.6C34.76 65.2907 34.7067 65.0133 34.6 64.768C34.4933 64.512 34.3387 64.2933 34.136 64.112L31.064 61.264C30.744 60.9653 30.52 60.64 30.392 60.288C30.264 59.9253 30.2 59.5893 30.2 59.28C30.2 58.832 30.3067 58.4 30.52 57.984C30.7333 57.568 31.048 57.232 31.464 56.976C31.8907 56.7093 32.408 56.576 33.016 56.576ZM35.016 56.736V57.072H33.8V56.736H35.016ZM47.2498 63.968L47.0738 66.16C46.7964 66.5867 46.4338 66.9547 45.9858 67.264C45.5378 67.5733 45.0311 67.8133 44.4658 67.984C43.9004 68.144 43.3031 68.224 42.6738 68.224C41.5964 68.2133 40.6578 68.0053 39.8578 67.6C39.0684 67.1947 38.4604 66.6187 38.0338 65.872C37.6071 65.1253 37.3938 64.2347 37.3938 63.2C37.3938 62.1547 37.6071 61.2587 38.0338 60.512C38.4604 59.7653 39.0684 59.1893 39.8578 58.784C40.6578 58.3787 41.5964 58.176 42.6738 58.176C43.3351 58.176 44.0018 58.2613 44.6737 58.432C45.3458 58.6027 45.9271 58.8427 46.4178 59.152L46.7698 61.408H46.6258C46.3911 60.4267 45.9164 59.7227 45.2018 59.296C44.4978 58.8693 43.6498 58.656 42.6578 58.656C41.8151 58.656 41.0844 58.8427 40.4658 59.216C39.8578 59.5787 39.3831 60.1013 39.0418 60.784C38.7111 61.456 38.5458 62.2613 38.5458 63.2C38.5458 64.1173 38.7111 64.9173 39.0418 65.6C39.3831 66.272 39.8631 66.7947 40.4818 67.168C41.1004 67.5307 41.8311 67.7173 42.6738 67.728C43.4738 67.728 44.1938 67.6 44.8338 67.344C45.4844 67.0773 46.0124 66.6667 46.4178 66.112C46.8231 65.5573 47.0524 64.8427 47.1058 63.968H47.2498ZM51.075 58.4V68H50.067V58.4H51.075ZM50.115 66.976V68H48.755V67.84C48.755 67.84 48.7923 67.84 48.867 67.84C48.9417 67.84 48.979 67.84 48.979 67.84C49.2777 67.84 49.5283 67.7547 49.731 67.584C49.9443 67.4133 50.0563 67.2107 50.067 66.976H50.115ZM51.027 66.976H51.075C51.0857 67.2107 51.1923 67.4133 51.395 67.584C51.6083 67.7547 51.8643 67.84 52.163 67.84C52.163 67.84 52.195 67.84 52.259 67.84C52.3337 67.84 52.371 67.84 52.371 67.84L52.387 68H51.027V66.976ZM51.027 59.424V58.4H52.387L52.371 58.56C52.371 58.56 52.3337 58.56 52.259 58.56C52.195 58.56 52.163 58.56 52.163 58.56C51.8643 58.56 51.6083 58.6453 51.395 58.816C51.1923 58.976 51.0857 59.1787 51.075 59.424H51.027ZM50.115 59.424H50.067C50.0563 59.1787 49.9443 58.976 49.731 58.816C49.5283 58.6453 49.2777 58.56 48.979 58.56C48.9683 58.56 48.9257 58.56 48.851 58.56C48.787 58.56 48.755 58.56 48.755 58.56V58.4H50.115V59.424ZM56.306 58.4V68H55.282V58.4H56.306ZM60.61 67.504L60.578 68H56.274V67.504H60.61ZM59.858 62.96V63.44H56.274V62.96H59.858ZM60.594 58.4V58.896H56.274V58.4H60.594ZM61.506 65.712L60.626 68H58.194L58.738 67.504C59.2713 67.504 59.698 67.4293 60.018 67.28C60.3487 67.12 60.6153 66.9067 60.818 66.64C61.0207 66.3627 61.1967 66.0533 61.346 65.712H61.506ZM59.858 63.408V64.32H59.682V64.112C59.682 63.9307 59.6287 63.776 59.522 63.648C59.4153 63.5093 59.25 63.44 59.026 63.44V63.408H59.858ZM59.858 62.08V62.992H59.026V62.96C59.25 62.96 59.4153 62.896 59.522 62.768C59.6287 62.6293 59.682 62.4693 59.682 62.288V62.08H59.858ZM60.594 58.848V59.952H60.418V59.712C60.418 59.488 60.3433 59.296 60.194 59.136C60.0553 58.976 59.8633 58.896 59.618 58.896V58.848H60.594ZM60.594 58.144V58.56L58.77 58.4C59.1007 58.4 59.4527 58.3733 59.826 58.32C60.1993 58.256 60.4553 58.1973 60.594 58.144ZM55.314 66.976L55.522 68H54.13V67.84C54.13 67.84 54.1673 67.84 54.242 67.84C54.3167 67.84 54.354 67.84 54.354 67.84C54.6207 67.84 54.8393 67.7547 55.01 67.584C55.1807 67.4133 55.2713 67.2107 55.282 66.976H55.314ZM55.314 59.408H55.282C55.2713 59.1627 55.1807 58.96 55.01 58.8C54.8393 58.64 54.6207 58.56 54.354 58.56C54.354 58.56 54.3167 58.56 54.242 58.56C54.1673 58.56 54.13 58.56 54.13 58.56V58.4H55.522L55.314 59.408ZM63.7124 58.16L72.5764 66.512L72.7364 68.224L63.8724 59.824L63.7124 58.16ZM63.7444 67.008V68H62.5444V67.84C62.5444 67.84 62.587 67.84 62.6724 67.84C62.7684 67.84 62.8164 67.84 62.8164 67.84C63.0617 67.84 63.2697 67.76 63.4404 67.6C63.611 67.44 63.6964 67.2427 63.6964 67.008H63.7444ZM64.4164 67.008C64.4164 67.2427 64.5017 67.44 64.6724 67.6C64.8537 67.76 65.0617 67.84 65.2964 67.84C65.2964 67.84 65.339 67.84 65.4244 67.84C65.5204 67.84 65.5684 67.84 65.5684 67.84V68H64.3684V67.008H64.4164ZM63.7124 58.16L64.4004 59.056L64.4164 68H63.6964V60.16C63.6964 59.616 63.6697 59.1467 63.6164 58.752C63.5737 58.3573 63.5524 58.16 63.5524 58.16H63.7124ZM72.7364 58.4V66.176C72.7364 66.5173 72.747 66.848 72.7684 67.168C72.7897 67.4773 72.811 67.7333 72.8324 67.936C72.8644 68.128 72.8804 68.224 72.8804 68.224H72.7364L72.0324 67.376V58.4H72.7364ZM72.6884 59.392V58.4H73.8884V58.56C73.8884 58.56 73.8404 58.56 73.7444 58.56C73.659 58.56 73.6164 58.56 73.6164 58.56C73.3817 58.56 73.1737 58.64 72.9924 58.8C72.8217 58.96 72.7364 59.1573 72.7364 59.392H72.6884ZM72.0324 59.392C72.0217 59.1573 71.931 58.96 71.7604 58.8C71.5897 58.64 71.3817 58.56 71.1364 58.56C71.1364 58.56 71.0884 58.56 70.9924 58.56C70.907 58.56 70.8644 58.56 70.8644 58.56V58.4H72.0644V59.392H72.0324ZM85.031 63.968L84.855 66.16C84.5777 66.5867 84.215 66.9547 83.767 67.264C83.319 67.5733 82.8123 67.8133 82.247 67.984C81.6817 68.144 81.0843 68.224 80.455 68.224C79.3777 68.2133 78.439 68.0053 77.639 67.6C76.8497 67.1947 76.2417 66.6187 75.815 65.872C75.3883 65.1253 75.175 64.2347 75.175 63.2C75.175 62.1547 75.3883 61.2587 75.815 60.512C76.2417 59.7653 76.8497 59.1893 77.639 58.784C78.439 58.3787 79.3777 58.176 80.455 58.176C81.1163 58.176 81.783 58.2613 82.455 58.432C83.127 58.6027 83.7083 58.8427 84.199 59.152L84.551 61.408H84.407C84.1723 60.4267 83.6977 59.7227 82.983 59.296C82.279 58.8693 81.431 58.656 80.439 58.656C79.5963 58.656 78.8657 58.8427 78.247 59.216C77.639 59.5787 77.1643 60.1013 76.823 60.784C76.4923 61.456 76.327 62.2613 76.327 63.2C76.327 64.1173 76.4923 64.9173 76.823 65.6C77.1643 66.272 77.6443 66.7947 78.263 67.168C78.8817 67.5307 79.6123 67.7173 80.455 67.728C81.255 67.728 81.975 67.6 82.615 67.344C83.2657 67.0773 83.7937 66.6667 84.199 66.112C84.6043 65.5573 84.8337 64.8427 84.887 63.968H85.031ZM88.7123 58.4V68H87.6883V58.4H88.7123ZM93.0163 67.504L92.9843 68H88.6803V67.504H93.0163ZM92.2643 62.96V63.44H88.6803V62.96H92.2643ZM93.0003 58.4V58.896H88.6803V58.4H93.0003ZM93.9123 65.712L93.0323 68H90.6003L91.1443 67.504C91.6776 67.504 92.1043 67.4293 92.4243 67.28C92.7549 67.12 93.0216 66.9067 93.2243 66.64C93.4269 66.3627 93.6029 66.0533 93.7523 65.712H93.9123ZM92.2643 63.408V64.32H92.0883V64.112C92.0883 63.9307 92.0349 63.776 91.9283 63.648C91.8216 63.5093 91.6563 63.44 91.4323 63.44V63.408H92.2643ZM92.2643 62.08V62.992H91.4323V62.96C91.6563 62.96 91.8216 62.896 91.9283 62.768C92.0349 62.6293 92.0883 62.4693 92.0883 62.288V62.08H92.2643ZM93.0003 58.848V59.952H92.8243V59.712C92.8243 59.488 92.7496 59.296 92.6003 59.136C92.4616 58.976 92.2696 58.896 92.0243 58.896V58.848H93.0003ZM93.0003 58.144V58.56L91.1763 58.4C91.5069 58.4 91.8589 58.3733 92.2323 58.32C92.6056 58.256 92.8616 58.1973 93.0003 58.144ZM87.7203 66.976L87.9283 68H86.5363V67.84C86.5363 67.84 86.5736 67.84 86.6483 67.84C86.7229 67.84 86.7603 67.84 86.7603 67.84C87.0269 67.84 87.2456 67.7547 87.4163 67.584C87.5869 67.4133 87.6776 67.2107 87.6883 66.976H87.7203ZM87.7203 59.408H87.6883C87.6776 59.1627 87.5869 58.96 87.4163 58.8C87.2456 58.64 87.0269 58.56 86.7603 58.56C86.7603 58.56 86.7229 58.56 86.6483 58.56C86.5736 58.56 86.5363 58.56 86.5363 58.56V58.4H87.9283L87.7203 59.408Z" fill="black"/>
</svg>
