<svg width="264" height="64" viewBox="0 0 264 64" fill="none" xmlns="http://www.w3.org/2000/svg">
<path d="M10.56 56L1.2 56.04V55.52C1.6 55.52 3.2 55.52 3.2 53.08V30.68C3.2 28.24 1.6 28.24 1.2 28.24V27.72H10.56C18.36 27.72 24.6 34.04 24.6 41.88C24.6 49.68 18.36 56 10.56 56ZM5.92 28.84V54.88H10.56C17.08 54.88 21.88 48.4 21.88 41.88C21.88 35.32 17.08 28.84 10.56 28.84H5.92ZM34.8994 45.84C34.8994 39.36 38.2994 35.32 43.4594 35.32C48.4594 35.32 51.5794 39.92 51.4994 44.8H37.7394C37.7394 45.16 37.7394 45.52 37.7394 45.84C37.7394 50.84 39.2594 55.28 43.8594 55.28C47.6994 55.28 49.8994 53.04 50.2994 48.84H50.8194L50.3794 54.2C48.6594 55.64 46.3794 56.4 43.8594 56.4C38.5794 56.4 34.8994 52.16 34.8994 45.84ZM37.8194 43.68H48.6594C48.3794 39.04 46.5394 36.44 43.4594 36.44C40.0994 36.44 38.2194 38.88 37.8194 43.68ZM76.8866 41.68L76.8466 53.04C76.8466 55.48 78.4466 55.48 78.8466 55.48V56H74.2066V52.88C72.8066 55.16 71.0466 56.4 68.4866 56.4C64.3666 56.4 61.7266 53.96 61.7266 50.44C61.7266 44.52 69.2066 44.52 74.2466 44.12V41.68C74.2066 38.64 73.0466 36.44 69.7666 36.44C66.2866 36.44 65.1666 39.32 65.4066 41.44L62.8466 41C62.7266 38.56 65.6466 35.32 69.7666 35.32C74.1266 35.32 76.8866 37.8 76.8866 41.68ZM68.8466 55.28H68.8866C71.9266 55.28 74.2066 51.72 74.2066 49.32L74.2466 45.24C70.8466 45.52 64.4066 45.24 64.4066 50.4C64.4066 51.92 65.0866 55.28 68.8466 55.28ZM98.5119 35.32C100.192 35.32 101.872 36 102.992 37.12L101.592 39.32C101.032 37.48 99.7119 36.44 98.1119 36.44C94.9119 36.44 93.1119 42.96 93.1119 53.04C93.1119 55.48 94.7119 55.48 95.1119 55.48V56H88.4719V55.48C88.8719 55.48 90.4719 55.48 90.4719 53.04V38.64C90.4719 36.2 88.8719 36.2 88.4719 36.2V35.68H93.1119V42.04C94.0319 38.68 95.4719 35.32 98.5119 35.32ZM128.973 41.84C128.973 33.84 133.773 27.28 141.813 27.28C145.213 27.28 148.213 28.44 150.413 30.52L151.253 35.24H150.733C149.933 30.88 145.693 28.44 141.813 28.44C135.093 28.44 131.693 35.08 131.693 41.84C131.693 48.68 135.053 55.28 141.813 55.28C147.133 55.28 150.613 52.16 151.093 46.04H151.613L151.053 53.16C148.773 55.4 145.813 56.4 141.813 56.4C133.773 56.4 128.973 49.88 128.973 41.84ZM179.122 35.68L179.082 53.04C179.082 55.48 180.682 55.48 181.082 55.48V56H176.442V52.84C175.122 55.16 173.002 56.4 170.522 56.4C166.682 56.4 163.842 53.48 163.842 49.56V38.64C163.842 36.2 162.242 36.2 161.842 36.2V35.68H166.482V49.56C166.482 53.12 168.162 55.28 170.962 55.28C173.962 55.28 176.482 52.44 176.482 49V38.64C176.482 36.2 174.882 36.2 174.482 36.2V35.68H179.122ZM193.426 36.8H190.306V35.68C194.946 35.68 194.906 30.8 194.946 29.28H196.066V35.68H202.346V36.8H196.066V50.88C196.066 56.2 201.706 55.88 202.866 52.56L203.146 53C201.506 58.04 193.426 57.64 193.426 50.88V36.8ZM216.059 32.6L214.259 30.8L216.059 29L217.859 30.8L216.059 32.6ZM219.379 56H212.739V55.48C213.139 55.48 214.739 55.48 214.739 53.04V38.64C214.739 36.2 213.139 36.2 212.739 36.2V35.68H217.379V53.04C217.379 55.48 218.979 55.48 219.379 55.48V56ZM229.212 45.84C229.212 39.36 232.612 35.32 237.772 35.32C242.772 35.32 245.892 39.92 245.812 44.8H232.052C232.052 45.16 232.052 45.52 232.052 45.84C232.052 50.84 233.572 55.28 238.172 55.28C242.012 55.28 244.212 53.04 244.612 48.84H245.132L244.692 54.2C242.972 55.64 240.692 56.4 238.172 56.4C232.892 56.4 229.212 52.16 229.212 45.84ZM232.132 43.68H242.972C242.692 39.04 240.852 36.44 237.772 36.44C234.412 36.44 232.532 38.88 232.132 43.68Z" fill="#AB0186"/>
<path d="M247.5 0L245.75 14.7499L231 16.5L245.75 18.2501L247.5 33L249.25 18.2501L264 16.5L249.25 14.7499L247.5 0Z" fill="url(#paint0_linear_2_91)"/>
<defs>
<linearGradient id="paint0_linear_2_91" x1="247.5" y1="0" x2="247.5" y2="33" gradientUnits="userSpaceOnUse">
<stop offset="0.255208" stop-color="#F19FDF"/>
<stop offset="1" stop-color="#772B66"/>
</linearGradient>
</defs>
</svg>
