<svg width="236" height="66" viewBox="0 0 236 66" fill="none" xmlns="http://www.w3.org/2000/svg">
<path d="M13.2 56L1.5 56.05V55.4C2 55.4 4 55.4 4 52.35V24.35C4 21.3 2 21.3 1.5 21.3V20.65H13.2C22.95 20.65 30.75 28.55 30.75 38.35C30.75 48.1 22.95 56 13.2 56ZM7.4 22.05V54.6H13.2C21.35 54.6 27.35 46.5 27.35 38.35C27.35 30.15 21.35 22.05 13.2 22.05H7.4ZM33.6242 43.3C33.6242 35.2 37.8742 30.15 44.3242 30.15C50.5742 30.15 54.4742 35.9 54.3742 42H37.1742C37.1742 42.45 37.1742 42.9 37.1742 43.3C37.1742 49.55 39.0742 55.1 44.8242 55.1C49.6242 55.1 52.3742 52.3 52.8742 47.05H53.5242L52.9742 53.75C50.8242 55.55 47.9742 56.5 44.8242 56.5C38.2242 56.5 33.6242 51.2 33.6242 43.3ZM37.2742 40.6H50.8242C50.4742 34.8 48.1742 31.55 44.3242 31.55C40.1242 31.55 37.7742 34.6 37.2742 40.6ZM76.1082 38.1L76.0582 52.3C76.0582 55.35 78.0582 55.35 78.5582 55.35V56H72.7582V52.1C71.0082 54.95 68.8082 56.5 65.6082 56.5C60.4582 56.5 57.1582 53.45 57.1582 49.05C57.1582 41.65 66.5082 41.65 72.8082 41.15V38.1C72.7582 34.3 71.3082 31.55 67.2082 31.55C62.8582 31.55 61.4582 35.15 61.7582 37.8L58.5582 37.25C58.4082 34.2 62.0582 30.15 67.2082 30.15C72.6582 30.15 76.1082 33.25 76.1082 38.1ZM66.0582 55.1H66.1082C69.9082 55.1 72.7582 50.65 72.7582 47.65L72.8082 42.55C68.5582 42.9 60.5082 42.55 60.5082 49C60.5082 50.9 61.3582 55.1 66.0582 55.1ZM93.1398 30.15C95.2398 30.15 97.3398 31 98.7398 32.4L96.9898 35.15C96.2898 32.85 94.6398 31.55 92.6398 31.55C88.6398 31.55 86.3898 39.7 86.3898 52.3C86.3898 55.35 88.3898 55.35 88.8898 55.35V56H80.5898V55.35C81.0898 55.35 83.0898 55.35 83.0898 52.3V34.3C83.0898 31.25 81.0898 31.25 80.5898 31.25V30.6H86.3898V38.55C87.5398 34.35 89.3398 30.15 93.1398 30.15ZM111.217 38.3C111.217 28.3 117.217 20.1 127.267 20.1C131.517 20.1 135.267 21.55 138.017 24.15L139.067 30.05H138.417C137.417 24.6 132.117 21.55 127.267 21.55C118.867 21.55 114.617 29.85 114.617 38.3C114.617 46.85 118.817 55.1 127.267 55.1C133.917 55.1 138.267 51.2 138.867 43.55H139.517L138.817 52.45C135.967 55.25 132.267 56.5 127.267 56.5C117.217 56.5 111.217 48.35 111.217 38.3ZM163.903 30.6L163.853 52.3C163.853 55.35 165.853 55.35 166.353 55.35V56H160.553V52.05C158.903 54.95 156.253 56.5 153.153 56.5C148.353 56.5 144.803 52.85 144.803 47.95V34.3C144.803 31.25 142.803 31.25 142.303 31.25V30.6H148.103V47.95C148.103 52.4 150.203 55.1 153.703 55.1C157.453 55.1 160.603 51.55 160.603 47.25V34.3C160.603 31.25 158.603 31.25 158.103 31.25V30.6H163.903ZM171.783 32H167.883V30.6C173.683 30.6 173.633 24.5 173.683 22.6H175.083V30.6H182.933V32H175.083V49.6C175.083 56.25 182.133 55.85 183.583 51.7L183.933 52.25C181.883 58.55 171.783 58.05 171.783 49.6V32ZM190.074 26.75L187.824 24.5L190.074 22.25L192.324 24.5L190.074 26.75ZM194.224 56H185.924V55.35C186.424 55.35 188.424 55.35 188.424 52.3V34.3C188.424 31.25 186.424 31.25 185.924 31.25V30.6H191.724V52.3C191.724 55.35 193.724 55.35 194.224 55.35V56ZM196.515 43.3C196.515 35.2 200.765 30.15 207.215 30.15C213.465 30.15 217.365 35.9 217.265 42H200.065C200.065 42.45 200.065 42.9 200.065 43.3C200.065 49.55 201.965 55.1 207.715 55.1C212.515 55.1 215.265 52.3 215.765 47.05H216.415L215.865 53.75C213.715 55.55 210.865 56.5 207.715 56.5C201.115 56.5 196.515 51.2 196.515 43.3ZM200.165 40.6H213.715C213.365 34.8 211.065 31.55 207.215 31.55C203.015 31.55 200.665 34.6 200.165 40.6Z" fill="#AB0186"/>
<path d="M219.5 0L217.75 14.7499L203 16.5L217.75 18.2501L219.5 33L221.25 18.2501L236 16.5L221.25 14.7499L219.5 0Z" fill="url(#paint0_linear_2_91)"/>
<defs>
<linearGradient id="paint0_linear_2_91" x1="219.5" y1="0" x2="219.5" y2="33" gradientUnits="userSpaceOnUse">
<stop offset="0.203125" stop-color="#F7CCED"/>
<stop offset="0.463542" stop-color="#F19FDF"/>
<stop offset="0.635417" stop-color="#AB0186"/>
<stop offset="0.953125" stop-color="#772B66"/>
</linearGradient>
</defs>
</svg>
